<?xml version="1.0" standalone="no"?>
<!DOCTYPE svg PUBLIC "-//W3C//DTD SVG 20010904//EN"
 "http://www.w3.org/TR/2001/REC-SVG-20010904/DTD/svg10.dtd">
<svg version="1.0" xmlns="http://www.w3.org/2000/svg"
 width="5000.000000pt" height="3000.000000pt" viewBox="0 0 5000.000000 3000.000000"
 preserveAspectRatio="xMidYMid meet">

<g transform="translate(0.000000,3000.000000) scale(0.100000,-0.100000)"
fill="#000000" stroke="none">
<path d="M1832 28273 c3 -93 4 -98 26 -101 22 -3 22 -1 22 97 l0 101 -25 0
-26 0 3 -97z"/>
<path d="M6010 28269 c0 -98 0 -100 23 -97 21 3 22 8 25 101 l3 97 -26 0 -25
0 0 -101z"/>
<path d="M10190 28269 c0 -98 0 -100 23 -97 21 3 22 8 25 101 l3 97 -26 0 -25
0 0 -101z"/>
<path d="M14370 28269 c0 -98 0 -100 23 -97 21 3 22 8 25 101 l3 97 -26 0 -25
0 0 -101z"/>
<path d="M18550 28270 c0 -93 1 -100 20 -100 19 0 20 7 20 100 0 93 -1 100
-20 100 -19 0 -20 -7 -20 -100z"/>
<path d="M22722 28273 c3 -93 4 -98 26 -101 22 -3 22 -1 22 97 l0 101 -25 0
-26 0 3 -97z"/>
<path d="M26902 28273 c3 -93 4 -98 26 -101 22 -3 22 -1 22 97 l0 101 -25 0
-26 0 3 -97z"/>
<path d="M31082 28273 c3 -93 4 -98 26 -101 22 -3 22 -1 22 97 l0 101 -25 0
-26 0 3 -97z"/>
<path d="M35260 28270 l0 -100 25 0 25 0 0 100 0 100 -25 0 -25 0 0 -100z"/>
<path d="M39442 28273 c3 -90 5 -98 23 -98 18 0 20 8 23 98 l3 97 -26 0 -26 0
3 -97z"/>
<path d="M43620 28269 c0 -98 0 -100 23 -97 21 3 22 8 25 101 l3 97 -26 0 -25
0 0 -101z"/>
<path d="M47800 28270 c0 -93 1 -100 20 -100 19 0 20 7 20 100 0 93 -1 100
-20 100 -19 0 -20 -7 -20 -100z"/>
<path d="M1830 27875 c0 -95 0 -95 25 -95 25 0 25 0 25 95 0 95 0 95 -25 95
-25 0 -25 0 -25 -95z"/>
<path d="M6010 27875 c0 -95 0 -95 25 -95 25 0 25 0 25 95 0 95 0 95 -25 95
-25 0 -25 0 -25 -95z"/>
<path d="M10190 27875 c0 -95 0 -95 25 -95 25 0 25 0 25 95 0 95 0 95 -25 95
-25 0 -25 0 -25 -95z"/>
<path d="M14370 27875 c0 -95 0 -95 25 -95 25 0 25 0 25 95 0 95 0 95 -25 95
-25 0 -25 0 -25 -95z"/>
<path d="M18550 27875 c0 -88 1 -95 20 -95 19 0 20 7 20 95 0 88 -1 95 -20 95
-19 0 -20 -7 -20 -95z"/>
<path d="M22720 27875 c0 -95 0 -95 25 -95 25 0 25 0 25 95 0 95 0 95 -25 95
-25 0 -25 0 -25 -95z"/>
<path d="M26900 27875 c0 -95 0 -95 25 -95 25 0 25 0 25 95 0 95 0 95 -25 95
-25 0 -25 0 -25 -95z"/>
<path d="M31080 27875 c0 -95 0 -95 25 -95 25 0 25 0 25 95 0 95 0 95 -25 95
-25 0 -25 0 -25 -95z"/>
<path d="M35260 27875 c0 -95 0 -95 25 -95 25 0 25 0 25 95 0 95 0 95 -25 95
-25 0 -25 0 -25 -95z"/>
<path d="M39440 27875 c0 -95 0 -95 25 -95 25 0 25 0 25 95 0 95 0 95 -25 95
-25 0 -25 0 -25 -95z"/>
<path d="M43620 27875 c0 -95 0 -95 25 -95 25 0 25 0 25 95 0 95 0 95 -25 95
-25 0 -25 0 -25 -95z"/>
<path d="M47800 27875 c0 -88 1 -95 20 -95 19 0 20 7 20 95 0 88 -1 95 -20 95
-19 0 -20 -7 -20 -95z"/>
<path d="M1830 27470 l0 -100 25 0 25 0 0 100 0 100 -25 0 -25 0 0 -100z"/>
<path d="M6010 27469 c0 -98 0 -100 23 -97 21 3 22 8 25 101 l3 97 -26 0 -25
0 0 -101z"/>
<path d="M10190 27470 l0 -100 25 0 25 0 0 100 0 100 -25 0 -25 0 0 -100z"/>
<path d="M14370 27469 c0 -98 0 -100 23 -97 21 3 22 8 25 101 l3 97 -26 0 -25
0 0 -101z"/>
<path d="M18550 27470 c0 -93 1 -100 20 -100 19 0 20 7 20 100 0 93 -1 100
-20 100 -19 0 -20 -7 -20 -100z"/>
<path d="M22722 27473 c3 -93 4 -98 26 -101 22 -3 22 -1 22 97 l0 101 -25 0
-26 0 3 -97z"/>
<path d="M26902 27473 c3 -93 4 -98 26 -101 22 -3 22 -1 22 97 l0 101 -25 0
-26 0 3 -97z"/>
<path d="M31080 27470 l0 -100 25 0 25 0 0 100 0 100 -25 0 -25 0 0 -100z"/>
<path d="M35260 27470 l0 -100 25 0 25 0 0 100 0 100 -25 0 -25 0 0 -100z"/>
<path d="M39440 27470 l0 -100 25 0 25 0 0 100 0 100 -25 0 -25 0 0 -100z"/>
<path d="M43620 27469 c0 -98 0 -100 23 -97 21 3 22 8 25 101 l3 97 -26 0 -25
0 0 -101z"/>
<path d="M47800 27470 c0 -93 1 -100 20 -100 19 0 20 7 20 100 0 93 -1 100
-20 100 -19 0 -20 -7 -20 -100z"/>
<path d="M1832 27073 c3 -93 4 -98 26 -101 22 -3 22 -1 22 97 l0 101 -25 0
-26 0 3 -97z"/>
<path d="M6010 27069 c0 -98 0 -100 23 -97 21 3 22 8 25 101 l3 97 -26 0 -25
0 0 -101z"/>
<path d="M10190 27069 c0 -98 0 -100 23 -97 21 3 22 8 25 101 l3 97 -26 0 -25
0 0 -101z"/>
<path d="M14370 27069 c0 -98 0 -100 23 -97 21 3 22 8 25 101 l3 97 -26 0 -25
0 0 -101z"/>
<path d="M18550 27070 c0 -93 1 -100 20 -100 19 0 20 7 20 100 0 93 -1 100
-20 100 -19 0 -20 -7 -20 -100z"/>
<path d="M22722 27073 c3 -93 4 -98 26 -101 22 -3 22 -1 22 97 l0 101 -25 0
-26 0 3 -97z"/>
<path d="M26902 27073 c3 -93 4 -98 26 -101 22 -3 22 -1 22 97 l0 101 -25 0
-26 0 3 -97z"/>
<path d="M31082 27073 c3 -93 4 -98 26 -101 22 -3 22 -1 22 97 l0 101 -25 0
-26 0 3 -97z"/>
<path d="M35260 27070 l0 -100 25 0 25 0 0 100 0 100 -25 0 -25 0 0 -100z"/>
<path d="M39442 27073 c3 -90 5 -98 23 -98 18 0 20 8 23 98 l3 97 -26 0 -26 0
3 -97z"/>
<path d="M43620 27069 c0 -98 0 -100 23 -97 21 3 22 8 25 101 l3 97 -26 0 -25
0 0 -101z"/>
<path d="M47800 27070 c0 -93 1 -100 20 -100 19 0 20 7 20 100 0 93 -1 100
-20 100 -19 0 -20 -7 -20 -100z"/>
<path d="M1830 26675 c0 -95 0 -95 25 -95 25 0 25 0 25 95 0 95 0 95 -25 95
-25 0 -25 0 -25 -95z"/>
<path d="M6010 26675 c0 -95 0 -95 25 -95 25 0 25 0 25 95 0 95 0 95 -25 95
-25 0 -25 0 -25 -95z"/>
<path d="M10190 26675 c0 -95 0 -95 25 -95 25 0 25 0 25 95 0 95 0 95 -25 95
-25 0 -25 0 -25 -95z"/>
<path d="M14370 26675 c0 -95 0 -95 25 -95 25 0 25 0 25 95 0 95 0 95 -25 95
-25 0 -25 0 -25 -95z"/>
<path d="M18550 26675 c0 -88 1 -95 20 -95 19 0 20 7 20 95 0 88 -1 95 -20 95
-19 0 -20 -7 -20 -95z"/>
<path d="M22720 26675 c0 -95 0 -95 25 -95 25 0 25 0 25 95 0 95 0 95 -25 95
-25 0 -25 0 -25 -95z"/>
<path d="M26900 26675 c0 -95 0 -95 25 -95 25 0 25 0 25 95 0 95 0 95 -25 95
-25 0 -25 0 -25 -95z"/>
<path d="M31080 26675 c0 -95 0 -95 25 -95 25 0 25 0 25 95 0 95 0 95 -25 95
-25 0 -25 0 -25 -95z"/>
<path d="M35260 26675 c0 -95 0 -95 25 -95 25 0 25 0 25 95 0 95 0 95 -25 95
-25 0 -25 0 -25 -95z"/>
<path d="M43620 26675 c0 -95 0 -95 25 -95 25 0 25 0 25 95 0 95 0 95 -25 95
-25 0 -25 0 -25 -95z"/>
<path d="M47800 26675 c0 -88 1 -95 20 -95 19 0 20 7 20 95 0 88 -1 95 -20 95
-19 0 -20 -7 -20 -95z"/>
<path d="M1830 26270 l0 -100 25 0 25 0 0 100 0 100 -25 0 -25 0 0 -100z"/>
<path d="M6010 26269 c0 -98 0 -100 23 -97 21 3 22 8 25 101 l3 97 -26 0 -25
0 0 -101z"/>
<path d="M10190 26270 l0 -100 25 0 25 0 0 100 0 100 -25 0 -25 0 0 -100z"/>
<path d="M14370 26269 c0 -98 0 -100 23 -97 21 3 22 8 25 101 l3 97 -26 0 -25
0 0 -101z"/>
<path d="M18550 26270 c0 -93 1 -100 20 -100 19 0 20 7 20 100 0 93 -1 100
-20 100 -19 0 -20 -7 -20 -100z"/>
<path d="M22722 26273 c3 -93 4 -98 26 -101 22 -3 22 -1 22 97 l0 101 -25 0
-26 0 3 -97z"/>
<path d="M26902 26273 c3 -93 4 -98 26 -101 22 -3 22 -1 22 97 l0 101 -25 0
-26 0 3 -97z"/>
<path d="M31082 26273 c3 -93 4 -98 26 -101 22 -3 22 -1 22 97 l0 101 -25 0
-26 0 3 -97z"/>
<path d="M35260 26270 l0 -100 25 0 25 0 0 100 0 100 -25 0 -25 0 0 -100z"/>
<path d="M43620 26269 c0 -98 0 -100 23 -97 21 3 22 8 25 101 l3 97 -26 0 -25
0 0 -101z"/>
<path d="M47800 26270 c0 -93 1 -100 20 -100 19 0 20 7 20 100 0 93 -1 100
-20 100 -19 0 -20 -7 -20 -100z"/>
<path d="M1832 25873 c3 -93 4 -98 26 -101 22 -3 22 -1 22 97 l0 101 -25 0
-26 0 3 -97z"/>
<path d="M6010 25869 c0 -98 0 -100 23 -97 21 3 22 8 25 101 l3 97 -26 0 -25
0 0 -101z"/>
<path d="M10190 25869 c0 -98 0 -100 23 -97 21 3 22 8 25 101 l3 97 -26 0 -25
0 0 -101z"/>
<path d="M14370 25869 c0 -98 0 -100 23 -97 21 3 22 8 25 101 l3 97 -26 0 -25
0 0 -101z"/>
<path d="M18550 25870 c0 -93 1 -100 20 -100 19 0 20 7 20 100 0 93 -1 100
-20 100 -19 0 -20 -7 -20 -100z"/>
<path d="M22722 25873 c3 -93 4 -98 26 -101 22 -3 22 -1 22 97 l0 101 -25 0
-26 0 3 -97z"/>
<path d="M26902 25873 c3 -93 4 -98 26 -101 22 -3 22 -1 22 97 l0 101 -25 0
-26 0 3 -97z"/>
<path d="M31082 25873 c3 -93 4 -98 26 -101 22 -3 22 -1 22 97 l0 101 -25 0
-26 0 3 -97z"/>
<path d="M35260 25870 l0 -100 25 0 25 0 0 100 0 100 -25 0 -25 0 0 -100z"/>
<path d="M39442 25873 c3 -90 5 -98 23 -98 18 0 20 8 23 98 l3 97 -26 0 -26 0
3 -97z"/>
<path d="M43620 25869 c0 -98 0 -100 23 -97 21 3 22 8 25 101 l3 97 -26 0 -25
0 0 -101z"/>
<path d="M47800 25870 c0 -93 1 -100 20 -100 19 0 20 7 20 100 0 93 -1 100
-20 100 -19 0 -20 -7 -20 -100z"/>
<path d="M1830 25475 c0 -95 0 -95 25 -95 25 0 25 0 25 95 0 95 0 95 -25 95
-25 0 -25 0 -25 -95z"/>
<path d="M6010 25475 c0 -95 0 -95 25 -95 25 0 25 0 25 95 0 95 0 95 -25 95
-25 0 -25 0 -25 -95z"/>
<path d="M10190 25475 c0 -95 0 -95 25 -95 25 0 25 0 25 95 0 95 0 95 -25 95
-25 0 -25 0 -25 -95z"/>
<path d="M14370 25475 c0 -95 0 -95 25 -95 25 0 25 0 25 95 0 95 0 95 -25 95
-25 0 -25 0 -25 -95z"/>
<path d="M18550 25475 c0 -88 1 -95 20 -95 19 0 20 7 20 95 0 88 -1 95 -20 95
-19 0 -20 -7 -20 -95z"/>
<path d="M22720 25475 c0 -95 0 -95 25 -95 25 0 25 0 25 95 0 95 0 95 -25 95
-25 0 -25 0 -25 -95z"/>
<path d="M26900 25475 c0 -95 0 -95 25 -95 25 0 25 0 25 95 0 95 0 95 -25 95
-25 0 -25 0 -25 -95z"/>
<path d="M31080 25475 c0 -95 0 -95 25 -95 25 0 25 0 25 95 0 95 0 95 -25 95
-25 0 -25 0 -25 -95z"/>
<path d="M35260 25475 c0 -95 0 -95 25 -95 25 0 25 0 25 95 0 95 0 95 -25 95
-25 0 -25 0 -25 -95z"/>
<path d="M39440 25475 c0 -95 0 -95 25 -95 25 0 25 0 25 95 0 95 0 95 -25 95
-25 0 -25 0 -25 -95z"/>
<path d="M43620 25475 c0 -95 0 -95 25 -95 25 0 25 0 25 95 0 95 0 95 -25 95
-25 0 -25 0 -25 -95z"/>
<path d="M47800 25475 c0 -88 1 -95 20 -95 19 0 20 7 20 95 0 88 -1 95 -20 95
-19 0 -20 -7 -20 -95z"/>
<path d="M1830 25070 l0 -100 25 0 25 0 0 100 0 100 -25 0 -25 0 0 -100z"/>
<path d="M6010 25069 c0 -98 0 -100 23 -97 21 3 22 8 25 101 l3 97 -26 0 -25
0 0 -101z"/>
<path d="M10190 25070 l0 -100 25 0 25 0 0 100 0 100 -25 0 -25 0 0 -100z"/>
<path d="M14370 25069 c0 -98 0 -100 23 -97 21 3 22 8 25 101 l3 97 -26 0 -25
0 0 -101z"/>
<path d="M18550 25070 c0 -93 1 -100 20 -100 19 0 20 7 20 100 0 93 -1 100
-20 100 -19 0 -20 -7 -20 -100z"/>
<path d="M22722 25073 c3 -93 4 -98 26 -101 22 -3 22 -1 22 97 l0 101 -25 0
-26 0 3 -97z"/>
<path d="M26902 25073 c3 -93 4 -98 26 -101 22 -3 22 -1 22 97 l0 101 -25 0
-26 0 3 -97z"/>
<path d="M31080 25070 l0 -100 25 0 25 0 0 100 0 100 -25 0 -25 0 0 -100z"/>
<path d="M35260 25070 l0 -100 25 0 25 0 0 100 0 100 -25 0 -25 0 0 -100z"/>
<path d="M39440 25070 l0 -100 25 0 25 0 0 100 0 100 -25 0 -25 0 0 -100z"/>
<path d="M43620 25069 c0 -98 0 -100 23 -97 21 3 22 8 25 101 l3 97 -26 0 -25
0 0 -101z"/>
<path d="M47800 25070 c0 -93 1 -100 20 -100 19 0 20 7 20 100 0 93 -1 100
-20 100 -19 0 -20 -7 -20 -100z"/>
<path d="M1832 24673 c3 -93 4 -98 26 -101 22 -3 22 -1 22 97 l0 101 -25 0
-26 0 3 -97z"/>
<path d="M6010 24669 c0 -98 0 -100 23 -97 21 3 22 8 25 101 l3 97 -26 0 -25
0 0 -101z"/>
<path d="M10190 24669 c0 -98 0 -100 23 -97 21 3 22 8 25 101 l3 97 -26 0 -25
0 0 -101z"/>
<path d="M14370 24669 c0 -98 0 -100 23 -97 21 3 22 8 25 101 l3 97 -26 0 -25
0 0 -101z"/>
<path d="M18550 24670 c0 -93 1 -100 20 -100 19 0 20 7 20 100 0 93 -1 100
-20 100 -19 0 -20 -7 -20 -100z"/>
<path d="M22722 24673 c3 -93 4 -98 26 -101 22 -3 22 -1 22 97 l0 101 -25 0
-26 0 3 -97z"/>
<path d="M26902 24673 c3 -93 4 -98 26 -101 22 -3 22 -1 22 97 l0 101 -25 0
-26 0 3 -97z"/>
<path d="M31082 24673 c3 -93 4 -98 26 -101 22 -3 22 -1 22 97 l0 101 -25 0
-26 0 3 -97z"/>
<path d="M35260 24670 l0 -100 25 0 25 0 0 100 0 100 -25 0 -25 0 0 -100z"/>
<path d="M39442 24673 c3 -90 5 -98 23 -98 18 0 20 8 23 98 l3 97 -26 0 -26 0
3 -97z"/>
<path d="M43620 24669 c0 -98 0 -100 23 -97 21 3 22 8 25 101 l3 97 -26 0 -25
0 0 -101z"/>
<path d="M47800 24670 c0 -93 1 -100 20 -100 19 0 20 7 20 100 0 93 -1 100
-20 100 -19 0 -20 -7 -20 -100z"/>
<path d="M1830 24275 c0 -95 0 -95 25 -95 25 0 25 0 25 95 0 95 0 95 -25 95
-25 0 -25 0 -25 -95z"/>
<path d="M6010 24275 c0 -95 0 -95 25 -95 25 0 25 0 25 95 0 95 0 95 -25 95
-25 0 -25 0 -25 -95z"/>
<path d="M10190 24275 c0 -95 0 -95 25 -95 25 0 25 0 25 95 0 95 0 95 -25 95
-25 0 -25 0 -25 -95z"/>
<path d="M14370 24275 c0 -95 0 -95 25 -95 25 0 25 0 25 95 0 95 0 95 -25 95
-25 0 -25 0 -25 -95z"/>
<path d="M18550 24275 c0 -88 1 -95 20 -95 19 0 20 7 20 95 0 88 -1 95 -20 95
-19 0 -20 -7 -20 -95z"/>
<path d="M22720 24275 c0 -95 0 -95 25 -95 25 0 25 0 25 95 0 95 0 95 -25 95
-25 0 -25 0 -25 -95z"/>
<path d="M26902 24343 c2 -20 9 -29 26 -31 19 -3 22 1 22 27 0 27 -4 31 -26
31 -22 0 -25 -4 -22 -27z"/>
<path d="M31080 24275 c0 -95 0 -95 25 -95 25 0 25 0 25 95 0 95 0 95 -25 95
-25 0 -25 0 -25 -95z"/>
<path d="M35260 24275 c0 -95 0 -95 25 -95 25 0 25 0 25 95 0 95 0 95 -25 95
-25 0 -25 0 -25 -95z"/>
<path d="M39440 24275 c0 -95 0 -95 25 -95 25 0 25 0 25 95 0 95 0 95 -25 95
-25 0 -25 0 -25 -95z"/>
<path d="M43620 24275 c0 -95 0 -95 25 -95 25 0 25 0 25 95 0 95 0 95 -25 95
-25 0 -25 0 -25 -95z"/>
<path d="M47800 24275 c0 -88 1 -95 20 -95 19 0 20 7 20 95 0 88 -1 95 -20 95
-19 0 -20 -7 -20 -95z"/>
<path d="M1830 23870 l0 -100 25 0 25 0 0 100 0 100 -25 0 -25 0 0 -100z"/>
<path d="M6010 23869 c0 -98 0 -100 23 -97 21 3 22 8 25 101 l3 97 -26 0 -25
0 0 -101z"/>
<path d="M10190 23870 l0 -100 25 0 25 0 0 100 0 100 -25 0 -25 0 0 -100z"/>
<path d="M14370 23869 c0 -98 0 -100 23 -97 21 3 22 8 25 101 l3 97 -26 0 -25
0 0 -101z"/>
<path d="M18550 23870 c0 -93 1 -100 20 -100 19 0 20 7 20 100 0 93 -1 100
-20 100 -19 0 -20 -7 -20 -100z"/>
<path d="M22722 23873 c3 -93 4 -98 26 -101 22 -3 22 -1 22 97 l0 101 -25 0
-26 0 3 -97z"/>
<path d="M31082 23873 c3 -93 4 -98 26 -101 22 -3 22 -1 22 97 l0 101 -25 0
-26 0 3 -97z"/>
<path d="M35260 23870 l0 -100 25 0 25 0 0 100 0 100 -25 0 -25 0 0 -100z"/>
<path d="M39440 23870 l0 -100 25 0 25 0 0 100 0 100 -25 0 -25 0 0 -100z"/>
<path d="M43620 23869 c0 -98 0 -100 23 -97 21 3 22 8 25 101 l3 97 -26 0 -25
0 0 -101z"/>
<path d="M47800 23870 c0 -93 1 -100 20 -100 19 0 20 7 20 100 0 93 -1 100
-20 100 -19 0 -20 -7 -20 -100z"/>
<path d="M1832 23473 c3 -93 4 -98 26 -101 22 -3 22 -1 22 97 l0 101 -25 0
-26 0 3 -97z"/>
<path d="M6010 23469 c0 -98 0 -100 23 -97 21 3 22 8 25 101 l3 97 -26 0 -25
0 0 -101z"/>
<path d="M10190 23469 c0 -98 0 -100 23 -97 21 3 22 8 25 101 l3 97 -26 0 -25
0 0 -101z"/>
<path d="M14370 23469 c0 -98 0 -100 23 -97 21 3 22 8 25 101 l3 97 -26 0 -25
0 0 -101z"/>
<path d="M18550 23470 c0 -93 1 -100 20 -100 19 0 20 7 20 100 0 93 -1 100
-20 100 -19 0 -20 -7 -20 -100z"/>
<path d="M22722 23473 c3 -93 4 -98 26 -101 22 -3 22 -1 22 97 l0 101 -25 0
-26 0 3 -97z"/>
<path d="M31082 23473 c3 -93 4 -98 26 -101 22 -3 22 -1 22 97 l0 101 -25 0
-26 0 3 -97z"/>
<path d="M35260 23470 l0 -100 25 0 25 0 0 100 0 100 -25 0 -25 0 0 -100z"/>
<path d="M39442 23473 c3 -90 5 -98 23 -98 18 0 20 8 23 98 l3 97 -26 0 -26 0
3 -97z"/>
<path d="M43620 23469 c0 -98 0 -100 23 -97 21 3 22 8 25 101 l3 97 -26 0 -25
0 0 -101z"/>
<path d="M47800 23470 c0 -93 1 -100 20 -100 19 0 20 7 20 100 0 93 -1 100
-20 100 -19 0 -20 -7 -20 -100z"/>
<path d="M26904 23466 c-3 -8 -4 -31 -2 -52 2 -32 7 -40 26 -42 21 -3 22 0 22
52 0 50 -2 56 -20 56 -11 0 -23 -6 -26 -14z"/>
<path d="M1830 23075 c0 -95 0 -95 25 -95 25 0 25 0 25 95 0 95 0 95 -25 95
-25 0 -25 0 -25 -95z"/>
<path d="M6010 23075 c0 -95 0 -95 25 -95 25 0 25 0 25 95 0 95 0 95 -25 95
-25 0 -25 0 -25 -95z"/>
<path d="M10190 23075 c0 -95 0 -95 25 -95 25 0 25 0 25 95 0 95 0 95 -25 95
-25 0 -25 0 -25 -95z"/>
<path d="M14370 23075 c0 -95 0 -95 25 -95 25 0 25 0 25 95 0 95 0 95 -25 95
-25 0 -25 0 -25 -95z"/>
<path d="M18550 23075 c0 -88 1 -95 20 -95 19 0 20 7 20 95 0 88 -1 95 -20 95
-19 0 -20 -7 -20 -95z"/>
<path d="M22720 23075 c0 -95 0 -95 25 -95 25 0 25 0 25 95 0 95 0 95 -25 95
-25 0 -25 0 -25 -95z"/>
<path d="M26900 23075 c0 -95 0 -95 25 -95 25 0 25 0 25 95 0 95 0 95 -25 95
-25 0 -25 0 -25 -95z"/>
<path d="M31080 23075 c0 -95 0 -95 25 -95 25 0 25 0 25 95 0 95 0 95 -25 95
-25 0 -25 0 -25 -95z"/>
<path d="M35260 23075 c0 -95 0 -95 25 -95 25 0 25 0 25 95 0 95 0 95 -25 95
-25 0 -25 0 -25 -95z"/>
<path d="M39440 23075 c0 -95 0 -95 25 -95 25 0 25 0 25 95 0 95 0 95 -25 95
-25 0 -25 0 -25 -95z"/>
<path d="M43620 23075 c0 -95 0 -95 25 -95 25 0 25 0 25 95 0 95 0 95 -25 95
-25 0 -25 0 -25 -95z"/>
<path d="M47800 23075 c0 -88 1 -95 20 -95 19 0 20 7 20 95 0 88 -1 95 -20 95
-19 0 -20 -7 -20 -95z"/>
<path d="M1832 22673 c3 -90 5 -98 23 -98 18 0 20 8 23 98 l3 97 -26 0 -26 0
3 -97z"/>
<path d="M6010 22669 c0 -98 0 -100 23 -97 21 3 22 8 25 101 l3 97 -26 0 -25
0 0 -101z"/>
<path d="M10190 22669 c0 -98 0 -100 23 -97 21 3 22 8 25 101 l3 97 -26 0 -25
0 0 -101z"/>
<path d="M14370 22669 c0 -98 0 -100 23 -97 21 3 22 8 25 101 l3 97 -26 0 -25
0 0 -101z"/>
<path d="M22722 22673 c3 -93 4 -98 26 -101 22 -3 22 -1 22 97 l0 101 -25 0
-26 0 3 -97z"/>
<path d="M26902 22673 c3 -93 4 -98 26 -101 22 -3 22 -1 22 97 l0 101 -25 0
-26 0 3 -97z"/>
<path d="M31082 22673 c3 -93 4 -98 26 -101 22 -3 22 -1 22 97 l0 101 -25 0
-26 0 3 -97z"/>
<path d="M35262 22673 c3 -90 5 -98 23 -98 18 0 20 8 23 98 l3 97 -26 0 -26 0
3 -97z"/>
<path d="M39442 22673 c3 -90 5 -98 23 -98 18 0 20 8 23 98 l3 97 -26 0 -26 0
3 -97z"/>
<path d="M43620 22669 c0 -98 0 -100 23 -97 21 3 22 8 25 101 l3 97 -26 0 -25
0 0 -101z"/>
<path d="M47800 22670 c0 -93 1 -100 20 -100 19 0 20 7 20 100 0 93 -1 100
-20 100 -19 0 -20 -7 -20 -100z"/>
<path d="M1832 22273 c3 -93 4 -98 26 -101 22 -3 22 -1 22 97 l0 101 -25 0
-26 0 3 -97z"/>
<path d="M6010 22269 c0 -98 0 -100 23 -97 21 3 22 8 25 101 l3 97 -26 0 -25
0 0 -101z"/>
<path d="M10190 22269 c0 -98 0 -100 23 -97 21 3 22 8 25 101 l3 97 -26 0 -25
0 0 -101z"/>
<path d="M14370 22269 c0 -98 0 -100 23 -97 21 3 22 8 25 101 l3 97 -26 0 -25
0 0 -101z"/>
<path d="M22722 22273 c3 -93 4 -98 26 -101 22 -3 22 -1 22 97 l0 101 -25 0
-26 0 3 -97z"/>
<path d="M26902 22273 c3 -93 4 -98 26 -101 22 -3 22 -1 22 97 l0 101 -25 0
-26 0 3 -97z"/>
<path d="M31082 22273 c3 -93 4 -98 26 -101 22 -3 22 -1 22 97 l0 101 -25 0
-26 0 3 -97z"/>
<path d="M35260 22270 l0 -100 25 0 25 0 0 100 0 100 -25 0 -25 0 0 -100z"/>
<path d="M39442 22273 c3 -90 5 -98 23 -98 18 0 20 8 23 98 l3 97 -26 0 -26 0
3 -97z"/>
<path d="M43620 22269 c0 -98 0 -100 23 -97 21 3 22 8 25 101 l3 97 -26 0 -25
0 0 -101z"/>
<path d="M47800 22270 c0 -93 1 -100 20 -100 19 0 20 7 20 100 0 93 -1 100
-20 100 -19 0 -20 -7 -20 -100z"/>
<path d="M1830 21875 c0 -95 0 -95 25 -95 25 0 25 0 25 95 0 95 0 95 -25 95
-25 0 -25 0 -25 -95z"/>
<path d="M6010 21875 c0 -95 0 -95 25 -95 25 0 25 0 25 95 0 95 0 95 -25 95
-25 0 -25 0 -25 -95z"/>
<path d="M10190 21875 c0 -95 0 -95 25 -95 25 0 25 0 25 95 0 95 0 95 -25 95
-25 0 -25 0 -25 -95z"/>
<path d="M14370 21875 c0 -95 0 -95 25 -95 25 0 25 0 25 95 0 95 0 95 -25 95
-25 0 -25 0 -25 -95z"/>
<path d="M18550 21875 c0 -88 1 -95 20 -95 19 0 20 7 20 95 0 88 -1 95 -20 95
-19 0 -20 -7 -20 -95z"/>
<path d="M22720 21875 c0 -95 0 -95 25 -95 25 0 25 0 25 95 0 95 0 95 -25 95
-25 0 -25 0 -25 -95z"/>
<path d="M26900 21875 c0 -95 0 -95 25 -95 25 0 25 0 25 95 0 95 0 95 -25 95
-25 0 -25 0 -25 -95z"/>
<path d="M31080 21875 c0 -95 0 -95 25 -95 25 0 25 0 25 95 0 95 0 95 -25 95
-25 0 -25 0 -25 -95z"/>
<path d="M35260 21875 c0 -95 0 -95 25 -95 25 0 25 0 25 95 0 95 0 95 -25 95
-25 0 -25 0 -25 -95z"/>
<path d="M39440 21875 c0 -95 0 -95 25 -95 25 0 25 0 25 95 0 95 0 95 -25 95
-25 0 -25 0 -25 -95z"/>
<path d="M43620 21875 c0 -95 0 -95 25 -95 25 0 25 0 25 95 0 95 0 95 -25 95
-25 0 -25 0 -25 -95z"/>
<path d="M47800 21875 c0 -88 1 -95 20 -95 19 0 20 7 20 95 0 88 -1 95 -20 95
-19 0 -20 -7 -20 -95z"/>
<path d="M1830 21475 c0 -95 0 -95 25 -95 25 0 25 0 25 95 0 95 0 95 -25 95
-25 0 -25 0 -25 -95z"/>
<path d="M6010 21475 c0 -95 0 -95 25 -95 25 0 25 0 25 95 0 95 0 95 -25 95
-25 0 -25 0 -25 -95z"/>
<path d="M10190 21475 c0 -95 0 -95 25 -95 25 0 25 0 25 95 0 95 0 95 -25 95
-25 0 -25 0 -25 -95z"/>
<path d="M14370 21475 c0 -95 0 -95 25 -95 25 0 25 0 25 95 0 95 0 95 -25 95
-25 0 -25 0 -25 -95z"/>
<path d="M18550 21475 c0 -88 1 -95 20 -95 19 0 20 7 20 95 0 88 -1 95 -20 95
-19 0 -20 -7 -20 -95z"/>
<path d="M22720 21475 c0 -95 0 -95 25 -95 25 0 25 0 25 95 0 95 0 95 -25 95
-25 0 -25 0 -25 -95z"/>
<path d="M26900 21475 c0 -95 0 -95 25 -95 25 0 25 0 25 95 0 95 0 95 -25 95
-25 0 -25 0 -25 -95z"/>
<path d="M31080 21475 c0 -95 0 -95 25 -95 25 0 25 0 25 95 0 95 0 95 -25 95
-25 0 -25 0 -25 -95z"/>
<path d="M35260 21475 c0 -95 0 -95 25 -95 25 0 25 0 25 95 0 95 0 95 -25 95
-25 0 -25 0 -25 -95z"/>
<path d="M39440 21475 c0 -95 0 -95 25 -95 25 0 25 0 25 95 0 95 0 95 -25 95
-25 0 -25 0 -25 -95z"/>
<path d="M43620 21475 c0 -95 0 -95 25 -95 25 0 25 0 25 95 0 95 0 95 -25 95
-25 0 -25 0 -25 -95z"/>
<path d="M47800 21475 c0 -88 1 -95 20 -95 19 0 20 7 20 95 0 88 -1 95 -20 95
-19 0 -20 -7 -20 -95z"/>
<path d="M1832 21073 c3 -93 4 -98 26 -101 22 -3 22 -1 22 97 l0 101 -25 0
-26 0 3 -97z"/>
<path d="M6010 21069 c0 -98 0 -100 23 -97 21 3 22 8 25 101 l3 97 -26 0 -25
0 0 -101z"/>
<path d="M10190 21069 c0 -98 0 -100 23 -97 21 3 22 8 25 101 l3 97 -26 0 -25
0 0 -101z"/>
<path d="M14370 21069 c0 -98 0 -100 23 -97 21 3 22 8 25 101 l3 97 -26 0 -25
0 0 -101z"/>
<path d="M18550 21070 c0 -93 1 -100 20 -100 19 0 20 7 20 100 0 93 -1 100
-20 100 -19 0 -20 -7 -20 -100z"/>
<path d="M22722 21073 c3 -93 4 -98 26 -101 22 -3 22 -1 22 97 l0 101 -25 0
-26 0 3 -97z"/>
<path d="M26902 21073 c3 -93 4 -98 26 -101 22 -3 22 -1 22 97 l0 101 -25 0
-26 0 3 -97z"/>
<path d="M31082 21073 c3 -93 4 -98 26 -101 22 -3 22 -1 22 97 l0 101 -25 0
-26 0 3 -97z"/>
<path d="M35260 21070 l0 -100 25 0 25 0 0 100 0 100 -25 0 -25 0 0 -100z"/>
<path d="M39442 21073 c3 -90 5 -98 23 -98 18 0 20 8 23 98 l3 97 -26 0 -26 0
3 -97z"/>
<path d="M43620 21069 c0 -98 0 -100 23 -97 21 3 22 8 25 101 l3 97 -26 0 -25
0 0 -101z"/>
<path d="M47800 21070 c0 -93 1 -100 20 -100 19 0 20 7 20 100 0 93 -1 100
-20 100 -19 0 -20 -7 -20 -100z"/>
<path d="M10208 20773 c-16 -4 -18 -17 -18 -98 0 -83 2 -93 19 -98 11 -3 22
-2 25 1 9 8 7 190 -1 195 -5 2 -16 2 -25 0z"/>
<path d="M14370 20678 l0 -98 25 0 26 0 -3 97 c-3 92 -4 96 -25 98 -22 2 -23
-1 -23 -97z"/>
<path d="M18550 20678 c0 -91 1 -98 20 -98 19 0 20 7 20 98 0 91 -1 98 -20 98
-19 0 -20 -7 -20 -98z"/>
<path d="M22725 20771 c-3 -2 -5 -46 -5 -98 0 -93 0 -93 25 -93 25 0 25 0 25
98 0 92 -1 98 -20 98 -12 0 -23 -2 -25 -5z"/>
<path d="M26906 20772 c-3 -3 -6 -47 -6 -99 0 -93 0 -93 25 -93 25 0 25 0 25
94 0 84 -2 94 -19 99 -11 3 -22 2 -25 -1z"/>
<path d="M31086 20772 c-3 -3 -6 -47 -6 -99 0 -93 0 -93 25 -93 25 0 25 0 25
94 0 84 -2 94 -19 99 -11 3 -22 2 -25 -1z"/>
<path d="M43638 20773 c-16 -4 -18 -17 -18 -99 0 -94 0 -94 25 -94 25 0 25 0
25 94 0 52 -3 97 -7 99 -5 2 -16 2 -25 0z"/>
<path d="M47800 20678 c0 -91 1 -98 20 -98 19 0 20 7 20 98 0 91 -1 98 -20 98
-19 0 -20 -7 -20 -98z"/>
<path d="M1830 20675 c0 -95 0 -95 25 -95 25 0 25 0 25 95 0 95 0 95 -25 95
-25 0 -25 0 -25 -95z"/>
<path d="M6010 20675 c0 -95 0 -95 25 -95 25 0 25 0 25 95 0 95 0 95 -25 95
-25 0 -25 0 -25 -95z"/>
<path d="M35260 20675 c0 -95 0 -95 25 -95 25 0 25 0 25 95 0 95 0 95 -25 95
-25 0 -25 0 -25 -95z"/>
<path d="M39440 20675 c0 -95 0 -95 25 -95 25 0 25 0 25 95 0 95 0 95 -25 95
-25 0 -25 0 -25 -95z"/>
<path d="M1830 20275 c0 -95 0 -95 25 -95 25 0 25 0 25 95 0 95 0 95 -25 95
-25 0 -25 0 -25 -95z"/>
<path d="M6010 20275 c0 -95 0 -95 25 -95 25 0 25 0 25 95 0 95 0 95 -25 95
-25 0 -25 0 -25 -95z"/>
<path d="M14370 20275 c0 -95 0 -95 25 -95 25 0 25 0 25 95 0 95 0 95 -25 95
-25 0 -25 0 -25 -95z"/>
<path d="M18550 20275 c0 -88 1 -95 20 -95 19 0 20 7 20 95 0 88 -1 95 -20 95
-19 0 -20 -7 -20 -95z"/>
<path d="M22720 20275 c0 -95 0 -95 25 -95 25 0 25 0 25 95 0 95 0 95 -25 95
-25 0 -25 0 -25 -95z"/>
<path d="M26900 20275 c0 -95 0 -95 25 -95 25 0 25 0 25 95 0 95 0 95 -25 95
-25 0 -25 0 -25 -95z"/>
<path d="M31080 20275 c0 -95 0 -95 25 -95 25 0 25 0 25 95 0 95 0 95 -25 95
-25 0 -25 0 -25 -95z"/>
<path d="M35260 20275 c0 -95 0 -95 25 -95 25 0 25 0 25 95 0 95 0 95 -25 95
-25 0 -25 0 -25 -95z"/>
<path d="M39440 20275 c0 -95 0 -95 25 -95 25 0 25 0 25 95 0 95 0 95 -25 95
-25 0 -25 0 -25 -95z"/>
<path d="M43620 20275 c0 -95 0 -95 25 -95 25 0 25 0 25 95 0 95 0 95 -25 95
-25 0 -25 0 -25 -95z"/>
<path d="M47800 20275 c0 -88 1 -95 20 -95 19 0 20 7 20 95 0 88 -1 95 -20 95
-19 0 -20 -7 -20 -95z"/>
<path d="M1832 19873 c3 -93 4 -98 26 -101 22 -3 22 -1 22 97 l0 101 -25 0
-26 0 3 -97z"/>
<path d="M6010 19869 c0 -98 0 -100 23 -97 21 3 22 8 25 101 l3 97 -26 0 -25
0 0 -101z"/>
<path d="M14370 19869 c0 -98 0 -100 23 -97 21 3 22 8 25 101 l3 97 -26 0 -25
0 0 -101z"/>
<path d="M18550 19870 c0 -93 1 -100 20 -100 19 0 20 7 20 100 0 93 -1 100
-20 100 -19 0 -20 -7 -20 -100z"/>
<path d="M22722 19873 c3 -93 4 -98 26 -101 22 -3 22 -1 22 97 l0 101 -25 0
-26 0 3 -97z"/>
<path d="M26902 19873 c3 -93 4 -98 26 -101 22 -3 22 -1 22 97 l0 101 -25 0
-26 0 3 -97z"/>
<path d="M31082 19873 c3 -93 4 -98 26 -101 22 -3 22 -1 22 97 l0 101 -25 0
-26 0 3 -97z"/>
<path d="M35260 19870 l0 -100 25 0 25 0 0 100 0 100 -25 0 -25 0 0 -100z"/>
<path d="M47800 19870 c0 -93 1 -100 20 -100 19 0 20 7 20 100 0 93 -1 100
-20 100 -19 0 -20 -7 -20 -100z"/>
<path d="M10208 19573 c-16 -4 -18 -17 -18 -99 0 -94 0 -94 25 -94 25 0 25 0
25 94 0 52 -3 97 -7 99 -5 2 -16 2 -25 0z"/>
<path d="M14370 19478 l0 -98 25 0 26 0 -3 97 c-3 92 -4 96 -25 98 -22 2 -23
-1 -23 -97z"/>
<path d="M18550 19478 c0 -91 1 -98 20 -98 19 0 20 7 20 98 0 91 -1 98 -20 98
-19 0 -20 -7 -20 -98z"/>
<path d="M22725 19571 c-3 -2 -5 -46 -5 -98 0 -93 0 -93 25 -93 25 0 25 0 25
98 0 92 -1 98 -20 98 -12 0 -23 -2 -25 -5z"/>
<path d="M26906 19572 c-3 -3 -6 -47 -6 -99 0 -93 0 -93 25 -93 25 0 25 0 25
94 0 84 -2 94 -19 99 -11 3 -22 2 -25 -1z"/>
<path d="M31086 19572 c-3 -3 -6 -47 -6 -99 0 -93 0 -93 25 -93 25 0 25 0 25
94 0 84 -2 94 -19 99 -11 3 -22 2 -25 -1z"/>
<path d="M1830 19475 c0 -95 0 -95 25 -95 25 0 25 0 25 95 0 95 0 95 -25 95
-25 0 -25 0 -25 -95z"/>
<path d="M6010 19475 c0 -95 0 -95 25 -95 25 0 25 0 25 95 0 95 0 95 -25 95
-25 0 -25 0 -25 -95z"/>
<path d="M35260 19475 c0 -95 0 -95 25 -95 25 0 25 0 25 95 0 95 0 95 -25 95
-25 0 -25 0 -25 -95z"/>
<path d="M1830 19075 c0 -95 0 -95 25 -95 25 0 25 0 25 95 0 95 0 95 -25 95
-25 0 -25 0 -25 -95z"/>
<path d="M6010 19075 c0 -95 0 -95 25 -95 25 0 25 0 25 95 0 95 0 95 -25 95
-25 0 -25 0 -25 -95z"/>
<path d="M10190 19075 c0 -95 0 -95 25 -95 25 0 25 0 25 95 0 95 0 95 -25 95
-25 0 -25 0 -25 -95z"/>
<path d="M14370 19075 c0 -95 0 -95 25 -95 25 0 25 0 25 95 0 95 0 95 -25 95
-25 0 -25 0 -25 -95z"/>
<path d="M18550 19075 c0 -88 1 -95 20 -95 19 0 20 7 20 95 0 88 -1 95 -20 95
-19 0 -20 -7 -20 -95z"/>
<path d="M26900 19075 c0 -95 0 -95 25 -95 25 0 25 0 25 95 0 95 0 95 -25 95
-25 0 -25 0 -25 -95z"/>
<path d="M31080 19075 c0 -95 0 -95 25 -95 25 0 25 0 25 95 0 95 0 95 -25 95
-25 0 -25 0 -25 -95z"/>
<path d="M35260 19075 c0 -95 0 -95 25 -95 25 0 25 0 25 95 0 95 0 95 -25 95
-25 0 -25 0 -25 -95z"/>
<path d="M39440 19075 c0 -95 0 -95 25 -95 25 0 25 0 25 95 0 95 0 95 -25 95
-25 0 -25 0 -25 -95z"/>
<path d="M43620 19075 c0 -95 0 -95 25 -95 25 0 25 0 25 95 0 95 0 95 -25 95
-25 0 -25 0 -25 -95z"/>
<path d="M1832 18673 c3 -93 4 -98 26 -101 22 -3 22 -1 22 97 l0 101 -25 0
-26 0 3 -97z"/>
<path d="M6010 18669 c0 -98 0 -100 23 -97 21 3 22 8 25 101 l3 97 -26 0 -25
0 0 -101z"/>
<path d="M10190 18669 c0 -98 0 -100 23 -97 21 3 22 8 25 101 l3 97 -26 0 -25
0 0 -101z"/>
<path d="M14370 18669 c0 -98 0 -100 23 -97 21 3 22 8 25 101 l3 97 -26 0 -25
0 0 -101z"/>
<path d="M18550 18670 c0 -93 1 -100 20 -100 19 0 20 7 20 100 0 93 -1 100
-20 100 -19 0 -20 -7 -20 -100z"/>
<path d="M31082 18673 c3 -93 4 -98 26 -101 22 -3 22 -1 22 97 l0 101 -25 0
-26 0 3 -97z"/>
<path d="M35260 18670 l0 -100 25 0 25 0 0 100 0 100 -25 0 -25 0 0 -100z"/>
<path d="M39442 18673 c3 -90 5 -98 23 -98 18 0 20 8 23 98 l3 97 -26 0 -26 0
3 -97z"/>
<path d="M43620 18669 c0 -98 0 -100 23 -97 21 3 22 8 25 101 l3 97 -26 0 -25
0 0 -101z"/>
<path d="M10208 18373 c-16 -4 -18 -17 -18 -99 0 -94 0 -94 25 -94 25 0 25 0
25 94 0 52 -3 97 -7 99 -5 2 -16 2 -25 0z"/>
<path d="M14370 18278 l0 -98 25 0 26 0 -3 97 c-3 92 -4 96 -25 98 -22 2 -23
-1 -23 -97z"/>
<path d="M18550 18278 c0 -91 1 -98 20 -98 19 0 20 7 20 98 0 91 -1 98 -20 98
-19 0 -20 -7 -20 -98z"/>
<path d="M31086 18372 c-3 -3 -6 -47 -6 -99 0 -93 0 -93 25 -93 25 0 25 0 25
94 0 84 -2 94 -19 99 -11 3 -22 2 -25 -1z"/>
<path d="M43638 18373 c-16 -4 -18 -17 -18 -99 0 -94 0 -94 25 -94 25 0 25 0
25 94 0 52 -3 97 -7 99 -5 2 -16 2 -25 0z"/>
<path d="M1830 18275 c0 -95 0 -95 25 -95 25 0 25 0 25 95 0 95 0 95 -25 95
-25 0 -25 0 -25 -95z"/>
<path d="M6010 18275 c0 -95 0 -95 25 -95 25 0 25 0 25 95 0 95 0 95 -25 95
-25 0 -25 0 -25 -95z"/>
<path d="M22720 18275 c0 -95 0 -95 25 -95 25 0 25 0 25 95 0 95 0 95 -25 95
-25 0 -25 0 -25 -95z"/>
<path d="M35260 18310 c0 -57 1 -60 25 -60 24 0 25 3 25 60 0 57 -1 60 -25 60
-24 0 -25 -3 -25 -60z"/>
<path d="M39440 18275 c0 -95 0 -95 25 -95 25 0 25 0 25 95 0 95 0 95 -25 95
-25 0 -25 0 -25 -95z"/>
<path d="M1830 17875 c0 -95 0 -95 25 -95 25 0 25 0 25 95 0 95 0 95 -25 95
-25 0 -25 0 -25 -95z"/>
<path d="M6010 17875 c0 -95 0 -95 25 -95 25 0 25 0 25 95 0 95 0 95 -25 95
-25 0 -25 0 -25 -95z"/>
<path d="M10190 17875 c0 -95 0 -95 25 -95 25 0 25 0 25 95 0 95 0 95 -25 95
-25 0 -25 0 -25 -95z"/>
<path d="M14370 17901 c0 -54 4 -70 16 -75 31 -12 34 -5 34 69 0 73 -1 75 -25
75 -24 0 -25 -2 -25 -69z"/>
<path d="M18550 17875 c0 -88 1 -95 20 -95 19 0 20 7 20 95 0 88 -1 95 -20 95
-19 0 -20 -7 -20 -95z"/>
<path d="M22720 17875 c0 -95 0 -95 25 -95 25 0 25 0 25 95 0 95 0 95 -25 95
-25 0 -25 0 -25 -95z"/>
<path d="M26900 17875 c0 -95 0 -95 25 -95 25 0 25 0 25 95 0 95 0 95 -25 95
-25 0 -25 0 -25 -95z"/>
<path d="M31080 17900 c0 -68 1 -70 25 -70 24 0 25 2 25 70 0 68 -1 70 -25 70
-24 0 -25 -2 -25 -70z"/>
<path d="M39440 17875 c0 -95 0 -95 25 -95 25 0 25 0 25 95 0 95 0 95 -25 95
-25 0 -25 0 -25 -95z"/>
<path d="M43620 17875 c0 -95 0 -95 25 -95 25 0 25 0 25 95 0 95 0 95 -25 95
-25 0 -25 0 -25 -95z"/>
<path d="M47800 17875 c0 -88 1 -95 20 -95 19 0 20 7 20 95 0 88 -1 95 -20 95
-19 0 -20 -7 -20 -95z"/>
<path d="M1832 17473 c3 -93 4 -98 26 -101 22 -3 22 -1 22 97 l0 101 -25 0
-26 0 3 -97z"/>
<path d="M6010 17469 c0 -98 0 -100 23 -97 21 3 22 8 25 101 l3 97 -26 0 -25
0 0 -101z"/>
<path d="M10190 17469 c0 -98 0 -100 23 -97 21 3 22 8 25 101 l3 97 -26 0 -25
0 0 -101z"/>
<path d="M18550 17470 c0 -93 1 -100 20 -100 19 0 20 7 20 100 0 93 -1 100
-20 100 -19 0 -20 -7 -20 -100z"/>
<path d="M22722 17473 c3 -93 4 -98 26 -101 22 -3 22 -1 22 97 l0 101 -25 0
-26 0 3 -97z"/>
<path d="M26902 17473 c3 -93 4 -98 26 -101 22 -3 22 -1 22 97 l0 101 -25 0
-26 0 3 -97z"/>
<path d="M39442 17473 c3 -90 5 -98 23 -98 18 0 20 8 23 98 l3 97 -26 0 -26 0
3 -97z"/>
<path d="M43620 17469 c0 -98 0 -100 23 -97 21 3 22 8 25 101 l3 97 -26 0 -25
0 0 -101z"/>
<path d="M47800 17470 c0 -93 1 -100 20 -100 19 0 20 7 20 100 0 93 -1 100
-20 100 -19 0 -20 -7 -20 -100z"/>
<path d="M35260 17390 c0 -15 7 -20 25 -20 18 0 25 5 25 20 0 15 -7 20 -25 20
-18 0 -25 -5 -25 -20z"/>
<path d="M10208 17173 c-16 -4 -18 -17 -18 -99 0 -94 0 -94 25 -94 25 0 25 0
25 94 0 52 -3 97 -7 99 -5 2 -16 2 -25 0z"/>
<path d="M18550 17078 c0 -91 1 -98 20 -98 19 0 20 7 20 98 0 91 -1 98 -20 98
-19 0 -20 -7 -20 -98z"/>
<path d="M26906 17172 c-3 -3 -6 -47 -6 -99 0 -93 0 -93 25 -93 25 0 25 0 25
94 0 84 -2 94 -19 99 -11 3 -22 2 -25 -1z"/>
<path d="M43638 17173 c-16 -4 -18 -17 -18 -99 0 -94 0 -94 25 -94 25 0 25 0
25 94 0 52 -3 97 -7 99 -5 2 -16 2 -25 0z"/>
<path d="M47800 17078 c0 -91 1 -98 20 -98 19 0 20 7 20 98 0 91 -1 98 -20 98
-19 0 -20 -7 -20 -98z"/>
<path d="M1830 17075 c0 -95 0 -95 25 -95 25 0 25 0 25 95 0 95 0 95 -25 95
-25 0 -25 0 -25 -95z"/>
<path d="M6010 17075 c0 -95 0 -95 25 -95 25 0 25 0 25 95 0 95 0 95 -25 95
-25 0 -25 0 -25 -95z"/>
<path d="M35260 17075 c0 -95 0 -95 25 -95 25 0 25 0 25 95 0 95 0 95 -25 95
-25 0 -25 0 -25 -95z"/>
<path d="M39440 17075 c0 -95 0 -95 25 -95 25 0 25 0 25 95 0 95 0 95 -25 95
-25 0 -25 0 -25 -95z"/>
<path d="M14370 16990 c0 -5 11 -10 25 -10 14 0 25 5 25 10 0 6 -11 10 -25 10
-14 0 -25 -4 -25 -10z"/>
<path d="M31084 16989 c-3 -5 6 -9 20 -9 31 0 34 6 6 13 -11 3 -23 1 -26 -4z"/>
<path d="M1830 16675 c0 -95 0 -95 25 -95 25 0 25 0 25 95 0 95 0 95 -25 95
-25 0 -25 0 -25 -95z"/>
<path d="M6010 16675 c0 -95 0 -95 25 -95 25 0 25 0 25 95 0 95 0 95 -25 95
-25 0 -25 0 -25 -95z"/>
<path d="M10190 16675 c0 -95 0 -95 25 -95 25 0 25 0 25 95 0 95 0 95 -25 95
-25 0 -25 0 -25 -95z"/>
<path d="M14370 16675 c0 -95 0 -95 25 -95 25 0 25 0 25 95 0 95 0 95 -25 95
-25 0 -25 0 -25 -95z"/>
<path d="M18550 16675 c0 -88 1 -95 20 -95 19 0 20 7 20 95 0 88 -1 95 -20 95
-19 0 -20 -7 -20 -95z"/>
<path d="M26900 16675 c0 -95 0 -95 25 -95 25 0 25 0 25 95 0 95 0 95 -25 95
-25 0 -25 0 -25 -95z"/>
<path d="M31080 16675 c0 -95 0 -95 25 -95 25 0 25 0 25 95 0 95 0 95 -25 95
-25 0 -25 0 -25 -95z"/>
<path d="M35260 16675 c0 -95 0 -95 25 -95 25 0 25 0 25 95 0 95 0 95 -25 95
-25 0 -25 0 -25 -95z"/>
<path d="M39440 16675 c0 -95 0 -95 25 -95 25 0 25 0 25 95 0 95 0 95 -25 95
-25 0 -25 0 -25 -95z"/>
<path d="M43620 16675 c0 -95 0 -95 25 -95 25 0 25 0 25 95 0 95 0 95 -25 95
-25 0 -25 0 -25 -95z"/>
<path d="M1832 16273 c3 -93 4 -98 26 -101 22 -3 22 -1 22 97 l0 101 -25 0
-26 0 3 -97z"/>
<path d="M10190 16269 c0 -98 0 -100 23 -97 21 3 22 8 25 101 l3 97 -26 0 -25
0 0 -101z"/>
<path d="M14370 16269 c0 -98 0 -100 23 -97 21 3 22 8 25 101 l3 97 -26 0 -25
0 0 -101z"/>
<path d="M22722 16273 c3 -93 4 -98 26 -101 22 -3 22 -1 22 97 l0 101 -25 0
-26 0 3 -97z"/>
<path d="M26902 16273 c3 -93 4 -98 26 -101 22 -3 22 -1 22 97 l0 101 -25 0
-26 0 3 -97z"/>
<path d="M39442 16273 c3 -90 5 -98 23 -98 18 0 20 8 23 98 l3 97 -26 0 -26 0
3 -97z"/>
<path d="M43620 16269 c0 -98 0 -100 23 -97 21 3 22 8 25 101 l3 97 -26 0 -25
0 0 -101z"/>
<path d="M10208 15973 c-16 -4 -18 -17 -18 -99 0 -94 0 -94 25 -94 25 0 25 0
25 94 0 52 -3 97 -7 99 -5 2 -16 2 -25 0z"/>
<path d="M14370 15878 l0 -98 25 0 26 0 -3 97 c-3 92 -4 96 -25 98 -22 2 -23
-1 -23 -97z"/>
<path d="M22725 15971 c-3 -2 -5 -46 -5 -98 0 -93 0 -93 25 -93 25 0 25 0 25
98 0 92 -1 98 -20 98 -12 0 -23 -2 -25 -5z"/>
<path d="M26906 15972 c-3 -3 -6 -47 -6 -99 0 -93 0 -93 25 -93 25 0 25 0 25
94 0 84 -2 94 -19 99 -11 3 -22 2 -25 -1z"/>
<path d="M1830 15875 c0 -95 0 -95 25 -95 25 0 25 0 25 95 0 95 0 95 -25 95
-25 0 -25 0 -25 -95z"/>
<path d="M39440 15875 c0 -95 0 -95 25 -95 25 0 25 0 25 95 0 95 0 95 -25 95
-25 0 -25 0 -25 -95z"/>
<path d="M47800 15875 c0 -88 1 -95 20 -95 19 0 20 7 20 95 0 88 -1 95 -20 95
-19 0 -20 -7 -20 -95z"/>
<path d="M1830 15475 c0 -95 0 -95 25 -95 25 0 25 0 25 95 0 95 0 95 -25 95
-25 0 -25 0 -25 -95z"/>
<path d="M6010 15475 c0 -95 0 -95 25 -95 25 0 25 0 25 95 0 95 0 95 -25 95
-25 0 -25 0 -25 -95z"/>
<path d="M14370 15475 c0 -95 0 -95 25 -95 25 0 25 0 25 95 0 95 0 95 -25 95
-25 0 -25 0 -25 -95z"/>
<path d="M18550 15475 c0 -88 1 -95 20 -95 19 0 20 7 20 95 0 88 -1 95 -20 95
-19 0 -20 -7 -20 -95z"/>
<path d="M22720 15475 c0 -95 0 -95 25 -95 25 0 25 0 25 95 0 95 0 95 -25 95
-25 0 -25 0 -25 -95z"/>
<path d="M26900 15475 c0 -95 0 -95 25 -95 25 0 25 0 25 95 0 95 0 95 -25 95
-25 0 -25 0 -25 -95z"/>
<path d="M31080 15475 c0 -95 0 -95 25 -95 25 0 25 0 25 95 0 95 0 95 -25 95
-25 0 -25 0 -25 -95z"/>
<path d="M39440 15550 c0 -15 7 -20 25 -20 18 0 25 5 25 20 0 15 -7 20 -25 20
-18 0 -25 -5 -25 -20z"/>
<path d="M47800 15475 c0 -88 1 -95 20 -95 19 0 20 7 20 95 0 88 -1 95 -20 95
-19 0 -20 -7 -20 -95z"/>
<path d="M35260 15465 c0 -84 0 -85 25 -85 25 0 25 1 25 85 0 84 0 85 -25 85
-25 0 -25 -1 -25 -85z"/>
<path d="M1832 15073 c3 -93 4 -98 26 -101 22 -3 22 -1 22 97 l0 101 -25 0
-26 0 3 -97z"/>
<path d="M6010 15069 c0 -98 0 -100 23 -97 21 3 22 8 25 101 l3 97 -26 0 -25
0 0 -101z"/>
<path d="M14370 15069 c0 -98 0 -100 23 -97 21 3 22 8 25 101 l3 97 -26 0 -25
0 0 -101z"/>
<path d="M18550 15140 c0 -23 4 -30 20 -30 16 0 20 7 20 30 0 23 -4 30 -20 30
-16 0 -20 -7 -20 -30z"/>
<path d="M26902 15073 c3 -93 4 -98 26 -101 22 -3 22 -1 22 97 l0 101 -25 0
-26 0 3 -97z"/>
<path d="M31082 15073 c3 -93 4 -98 26 -101 22 -3 22 -1 22 97 l0 101 -25 0
-26 0 3 -97z"/>
<path d="M35260 15070 l0 -100 25 0 25 0 0 100 0 100 -25 0 -25 0 0 -100z"/>
<path d="M43620 15069 c0 -98 0 -100 23 -97 21 3 22 8 25 101 l3 97 -26 0 -25
0 0 -101z"/>
<path d="M47800 15070 c0 -93 1 -100 20 -100 19 0 20 7 20 100 0 93 -1 100
-20 100 -19 0 -20 -7 -20 -100z"/>
<path d="M14370 14678 c0 -79 3 -98 15 -98 25 0 36 38 33 117 -3 71 -5 77 -25
78 -22 2 -23 -1 -23 -97z"/>
<path d="M26906 14772 c-3 -3 -6 -47 -6 -99 0 -93 0 -93 25 -93 25 0 25 0 25
94 0 84 -2 94 -19 99 -11 3 -22 2 -25 -1z"/>
<path d="M31086 14772 c-3 -3 -6 -20 -6 -39 0 -29 3 -33 25 -33 22 0 25 4 25
34 0 25 -5 35 -19 39 -11 3 -22 2 -25 -1z"/>
<path d="M43638 14773 c-15 -4 -18 -16 -18 -84 0 -78 0 -79 25 -79 25 0 25 1
25 79 0 83 -3 90 -32 84z"/>
<path d="M47800 14678 c0 -91 1 -98 20 -98 19 0 20 7 20 98 0 91 -1 98 -20 98
-19 0 -20 -7 -20 -98z"/>
<path d="M1830 14730 c0 -36 3 -40 25 -40 23 0 25 4 25 40 0 36 -2 40 -25 40
-22 0 -25 -4 -25 -40z"/>
<path d="M6010 14730 c0 -36 3 -40 25 -40 23 0 25 4 25 40 0 36 -2 40 -25 40
-22 0 -25 -4 -25 -40z"/>
<path d="M35260 14675 c0 -95 0 -95 25 -95 25 0 25 0 25 95 0 95 0 95 -25 95
-25 0 -25 0 -25 -95z"/>
<path d="M10190 14671 c0 -90 0 -91 25 -91 25 0 25 1 25 85 0 47 -4 85 -9 85
-5 0 -16 3 -25 6 -14 5 -16 -6 -16 -85z"/>
<path d="M39440 14640 c0 -57 1 -60 25 -60 24 0 25 3 25 60 0 57 -1 60 -25 60
-24 0 -25 -3 -25 -60z"/>
<path d="M10190 14275 c0 -95 0 -95 25 -95 25 0 25 0 25 95 0 95 0 95 -25 95
-25 0 -25 0 -25 -95z"/>
<path d="M26900 14275 c0 -95 0 -95 25 -95 25 0 25 0 25 95 0 95 0 95 -25 95
-25 0 -25 0 -25 -95z"/>
<path d="M35260 14275 c0 -95 0 -95 25 -95 25 0 25 0 25 95 0 95 0 95 -25 95
-25 0 -25 0 -25 -95z"/>
<path d="M39440 14275 c0 -95 0 -95 25 -95 25 0 25 0 25 95 0 95 0 95 -25 95
-25 0 -25 0 -25 -95z"/>
<path d="M47800 14275 c0 -88 1 -95 20 -95 19 0 20 7 20 95 0 88 -1 95 -20 95
-19 0 -20 -7 -20 -95z"/>
<path d="M22726 14332 c-3 -3 -6 -38 -6 -79 0 -71 1 -73 25 -73 24 0 25 2 25
74 0 65 -2 74 -19 79 -11 3 -22 2 -25 -1z"/>
<path d="M18550 14230 c0 -43 3 -50 20 -50 17 0 20 7 20 50 0 43 -3 50 -20 50
-17 0 -20 -7 -20 -50z"/>
<path d="M10190 13869 c0 -98 0 -100 23 -97 21 3 22 8 25 101 l3 97 -26 0 -25
0 0 -101z"/>
<path d="M18550 13870 c0 -93 1 -100 20 -100 19 0 20 7 20 100 0 93 -1 100
-20 100 -19 0 -20 -7 -20 -100z"/>
<path d="M22722 13873 c3 -93 4 -98 26 -101 22 -3 22 -1 22 97 l0 101 -25 0
-26 0 3 -97z"/>
<path d="M26902 13873 c3 -93 4 -98 26 -101 22 -3 22 -1 22 97 l0 101 -25 0
-26 0 3 -97z"/>
<path d="M35260 13870 l0 -100 25 0 25 0 0 100 0 100 -25 0 -25 0 0 -100z"/>
<path d="M39442 13873 c3 -90 5 -98 23 -98 18 0 20 8 23 98 l3 97 -26 0 -26 0
3 -97z"/>
<path d="M47800 13870 c0 -93 1 -100 20 -100 19 0 20 7 20 100 0 93 -1 100
-20 100 -19 0 -20 -7 -20 -100z"/>
<path d="M1832 13818 c2 -36 7 -44 26 -46 20 -3 22 1 22 42 0 43 -2 46 -26 46
-23 0 -25 -3 -22 -42z"/>
<path d="M6010 13814 c0 -41 2 -45 23 -42 18 2 23 10 25 46 3 39 1 42 -22 42
-24 0 -26 -3 -26 -46z"/>
<path d="M31083 13844 c-2 -7 -3 -25 -1 -41 2 -20 9 -29 26 -31 20 -3 22 1 22
42 0 39 -3 45 -21 43 -12 -1 -23 -7 -26 -13z"/>
<path d="M10208 13573 c-16 -4 -18 -17 -18 -99 0 -94 0 -94 25 -94 25 0 25 0
25 94 0 52 -3 97 -7 99 -5 2 -16 2 -25 0z"/>
<path d="M14370 13513 c0 -61 1 -63 25 -63 25 0 26 1 23 62 -3 56 -5 62 -25
63 -22 2 -23 -2 -23 -62z"/>
<path d="M18550 13478 c0 -91 1 -98 20 -98 19 0 20 7 20 98 0 91 -1 98 -20 98
-19 0 -20 -7 -20 -98z"/>
<path d="M22725 13571 c-3 -2 -5 -46 -5 -98 0 -93 0 -93 25 -93 25 0 25 0 25
98 0 92 -1 98 -20 98 -12 0 -23 -2 -25 -5z"/>
<path d="M26906 13572 c-3 -3 -6 -47 -6 -99 0 -93 0 -93 25 -93 25 0 25 0 25
94 0 84 -2 94 -19 99 -11 3 -22 2 -25 -1z"/>
<path d="M31086 13572 c-3 -3 -6 -47 -6 -99 0 -93 0 -93 25 -93 25 0 25 0 25
94 0 84 -2 94 -19 99 -11 3 -22 2 -25 -1z"/>
<path d="M43638 13573 c-16 -4 -18 -17 -18 -99 0 -94 0 -94 25 -94 25 0 25 0
25 94 0 52 -3 97 -7 99 -5 2 -16 2 -25 0z"/>
<path d="M47800 13478 c0 -91 1 -98 20 -98 19 0 20 7 20 98 0 91 -1 98 -20 98
-19 0 -20 -7 -20 -98z"/>
<path d="M1830 13475 c0 -95 0 -95 25 -95 25 0 25 0 25 95 0 95 0 95 -25 95
-25 0 -25 0 -25 -95z"/>
<path d="M6010 13475 c0 -95 0 -95 25 -95 25 0 25 0 25 95 0 95 0 95 -25 95
-25 0 -25 0 -25 -95z"/>
<path d="M35260 13475 c0 -95 0 -95 25 -95 25 0 25 0 25 95 0 95 0 95 -25 95
-25 0 -25 0 -25 -95z"/>
<path d="M39440 13475 c0 -95 0 -95 25 -95 25 0 25 0 25 95 0 95 0 95 -25 95
-25 0 -25 0 -25 -95z"/>
<path d="M1830 13075 c0 -95 0 -95 25 -95 25 0 25 0 25 95 0 95 0 95 -25 95
-25 0 -25 0 -25 -95z"/>
<path d="M6010 13075 c0 -95 0 -95 25 -95 25 0 25 0 25 95 0 95 0 95 -25 95
-25 0 -25 0 -25 -95z"/>
<path d="M10190 13075 c0 -95 0 -95 25 -95 25 0 25 0 25 95 0 95 0 95 -25 95
-25 0 -25 0 -25 -95z"/>
<path d="M18550 13075 c0 -88 1 -95 20 -95 19 0 20 7 20 95 0 88 -1 95 -20 95
-19 0 -20 -7 -20 -95z"/>
<path d="M22720 13075 c0 -95 0 -95 25 -95 25 0 25 0 25 95 0 95 0 95 -25 95
-25 0 -25 0 -25 -95z"/>
<path d="M26900 13075 c0 -95 0 -95 25 -95 25 0 25 0 25 95 0 95 0 95 -25 95
-25 0 -25 0 -25 -95z"/>
<path d="M31080 13075 c0 -95 0 -95 25 -95 25 0 25 0 25 95 0 95 0 95 -25 95
-25 0 -25 0 -25 -95z"/>
<path d="M35260 13075 c0 -95 0 -95 25 -95 25 0 25 0 25 95 0 95 0 95 -25 95
-25 0 -25 0 -25 -95z"/>
<path d="M39440 13075 c0 -95 0 -95 25 -95 25 0 25 0 25 95 0 95 0 95 -25 95
-25 0 -25 0 -25 -95z"/>
<path d="M43620 13075 c0 -95 0 -95 25 -95 25 0 25 0 25 95 0 95 0 95 -25 95
-25 0 -25 0 -25 -95z"/>
<path d="M47800 13075 c0 -88 1 -95 20 -95 19 0 20 7 20 95 0 88 -1 95 -20 95
-19 0 -20 -7 -20 -95z"/>
<path d="M1830 12675 c0 -95 0 -95 25 -95 25 0 25 0 25 95 0 95 0 95 -25 95
-25 0 -25 0 -25 -95z"/>
<path d="M6010 12676 c0 -84 2 -94 19 -99 11 -3 22 -2 25 1 3 3 6 47 6 99 0
93 0 93 -25 93 -25 0 -25 0 -25 -94z"/>
<path d="M10190 12676 c0 -84 2 -94 19 -99 11 -3 22 -2 25 1 3 3 6 47 6 99 0
93 0 93 -25 93 -25 0 -25 0 -25 -94z"/>
<path d="M18550 12672 c0 -91 1 -98 20 -98 19 0 20 7 20 98 0 91 -1 98 -20 98
-19 0 -20 -7 -20 -98z"/>
<path d="M22722 12673 c3 -92 4 -96 26 -98 21 -2 22 1 22 97 l0 98 -25 0 -26
0 3 -97z"/>
<path d="M26902 12673 c3 -92 4 -96 26 -98 21 -2 22 1 22 97 l0 98 -25 0 -26
0 3 -97z"/>
<path d="M31080 12675 c0 -95 0 -95 25 -95 25 0 25 0 25 95 0 95 0 95 -25 95
-25 0 -25 0 -25 -95z"/>
<path d="M35260 12675 c0 -95 0 -95 25 -95 25 0 25 0 25 95 0 95 0 95 -25 95
-25 0 -25 0 -25 -95z"/>
<path d="M39440 12675 c0 -95 0 -95 25 -95 25 0 25 0 25 95 0 95 0 95 -25 95
-25 0 -25 0 -25 -95z"/>
<path d="M43620 12672 c0 -96 1 -99 23 -97 21 2 22 6 25 98 l3 97 -26 0 -25 0
0 -98z"/>
<path d="M47800 12672 c0 -91 1 -98 20 -98 19 0 20 7 20 98 0 91 -1 98 -20 98
-19 0 -20 -7 -20 -98z"/>
<path d="M14370 12597 c0 -18 5 -23 23 -22 14 1 22 8 22 21 0 12 -8 20 -22 22
-18 3 -23 -1 -23 -21z"/>
<path d="M10208 12373 c-16 -4 -18 -17 -18 -99 0 -94 0 -94 25 -94 25 0 25 0
25 94 0 52 -3 97 -7 99 -5 2 -16 2 -25 0z"/>
<path d="M14370 12278 l0 -98 25 0 26 0 -3 97 c-3 92 -4 96 -25 98 -22 2 -23
-1 -23 -97z"/>
<path d="M18550 12278 c0 -91 1 -98 20 -98 19 0 20 7 20 98 0 91 -1 98 -20 98
-19 0 -20 -7 -20 -98z"/>
<path d="M22725 12371 c-3 -2 -5 -46 -5 -98 0 -93 0 -93 25 -93 25 0 25 0 25
98 0 92 -1 98 -20 98 -12 0 -23 -2 -25 -5z"/>
<path d="M26906 12372 c-3 -3 -6 -47 -6 -99 0 -93 0 -93 25 -93 25 0 25 0 25
94 0 84 -2 94 -19 99 -11 3 -22 2 -25 -1z"/>
<path d="M31086 12372 c-3 -3 -6 -47 -6 -99 0 -93 0 -93 25 -93 25 0 25 0 25
94 0 84 -2 94 -19 99 -11 3 -22 2 -25 -1z"/>
<path d="M43638 12373 c-16 -4 -18 -17 -18 -99 0 -94 0 -94 25 -94 25 0 25 0
25 94 0 52 -3 97 -7 99 -5 2 -16 2 -25 0z"/>
<path d="M47800 12278 c0 -91 1 -98 20 -98 19 0 20 7 20 98 0 91 -1 98 -20 98
-19 0 -20 -7 -20 -98z"/>
<path d="M1830 12275 c0 -95 0 -95 25 -95 25 0 25 0 25 95 0 95 0 95 -25 95
-25 0 -25 0 -25 -95z"/>
<path d="M6010 12305 c0 -63 1 -65 25 -65 24 0 25 2 25 65 0 63 -1 65 -25 65
-24 0 -25 -2 -25 -65z"/>
<path d="M35260 12275 c0 -95 0 -95 25 -95 25 0 25 0 25 95 0 95 0 95 -25 95
-25 0 -25 0 -25 -95z"/>
<path d="M39440 12275 c0 -95 0 -95 25 -95 25 0 25 0 25 95 0 95 0 95 -25 95
-25 0 -25 0 -25 -95z"/>
<path d="M1836 11972 c-3 -3 -6 -47 -6 -99 0 -93 0 -93 25 -93 25 0 25 0 25
94 0 84 -2 94 -19 99 -11 3 -22 2 -25 -1z"/>
<path d="M10208 11973 c-16 -4 -18 -17 -18 -99 0 -94 0 -94 25 -94 25 0 25 0
25 94 0 52 -3 97 -7 99 -5 2 -16 2 -25 0z"/>
<path d="M14370 11878 l0 -98 25 0 26 0 -3 97 c-3 92 -4 96 -25 98 -22 2 -23
-1 -23 -97z"/>
<path d="M18550 11878 c0 -91 1 -98 20 -98 19 0 20 7 20 98 0 91 -1 98 -20 98
-19 0 -20 -7 -20 -98z"/>
<path d="M22725 11971 c-3 -2 -5 -46 -5 -98 0 -93 0 -93 25 -93 25 0 25 0 25
98 0 92 -1 98 -20 98 -12 0 -23 -2 -25 -5z"/>
<path d="M26905 11971 c-3 -2 -5 -46 -5 -98 0 -93 0 -93 25 -93 25 0 25 0 25
98 0 92 -1 98 -20 98 -12 0 -23 -2 -25 -5z"/>
<path d="M31086 11972 c-3 -3 -6 -47 -6 -99 0 -93 0 -93 25 -93 25 0 25 0 25
94 0 84 -2 94 -19 99 -11 3 -22 2 -25 -1z"/>
<path d="M39458 11973 c-16 -4 -18 -17 -18 -99 0 -94 0 -94 25 -94 25 0 25 0
25 94 0 52 -3 97 -7 99 -5 2 -16 2 -25 0z"/>
<path d="M43620 11878 l0 -98 25 0 26 0 -3 97 c-3 92 -4 96 -25 98 -22 2 -23
-1 -23 -97z"/>
<path d="M47800 11878 c0 -91 1 -98 20 -98 19 0 20 7 20 98 0 91 -1 98 -20 98
-19 0 -20 -7 -20 -98z"/>
<path d="M35260 11875 c0 -95 0 -95 25 -95 25 0 25 0 25 95 0 95 0 95 -25 95
-25 0 -25 0 -25 -95z"/>
<path d="M1830 11475 c0 -95 0 -95 25 -95 25 0 25 0 25 95 0 95 0 95 -25 95
-25 0 -25 0 -25 -95z"/>
<path d="M10190 11475 c0 -95 0 -95 25 -95 25 0 25 0 25 95 0 95 0 95 -25 95
-25 0 -25 0 -25 -95z"/>
<path d="M14370 11475 c0 -95 0 -95 25 -95 25 0 25 0 25 95 0 95 0 95 -25 95
-25 0 -25 0 -25 -95z"/>
<path d="M18550 11475 c0 -88 1 -95 20 -95 19 0 20 7 20 95 0 88 -1 95 -20 95
-19 0 -20 -7 -20 -95z"/>
<path d="M22720 11475 c0 -95 0 -95 25 -95 25 0 25 0 25 95 0 95 0 95 -25 95
-25 0 -25 0 -25 -95z"/>
<path d="M26900 11475 c0 -95 0 -95 25 -95 25 0 25 0 25 95 0 95 0 95 -25 95
-25 0 -25 0 -25 -95z"/>
<path d="M31080 11475 c0 -95 0 -95 25 -95 25 0 25 0 25 95 0 95 0 95 -25 95
-25 0 -25 0 -25 -95z"/>
<path d="M35260 11550 c0 -13 7 -20 19 -20 10 0 21 9 24 20 4 16 0 20 -19 20
-17 0 -24 -6 -24 -20z"/>
<path d="M39440 11475 c0 -95 0 -95 25 -95 25 0 25 0 25 95 0 95 0 95 -25 95
-25 0 -25 0 -25 -95z"/>
<path d="M43620 11475 c0 -95 0 -95 25 -95 25 0 25 0 25 95 0 95 0 95 -25 95
-25 0 -25 0 -25 -95z"/>
<path d="M47800 11475 c0 -88 1 -95 20 -95 19 0 20 7 20 95 0 88 -1 95 -20 95
-19 0 -20 -7 -20 -95z"/>
<path d="M6010 11390 c0 -5 11 -10 25 -10 14 0 25 5 25 10 0 6 -11 10 -25 10
-14 0 -25 -4 -25 -10z"/>
<path d="M10208 11173 c-16 -4 -18 -17 -18 -99 0 -94 0 -94 25 -94 25 0 25 0
25 94 0 52 -3 97 -7 99 -5 2 -16 2 -25 0z"/>
<path d="M14370 11078 l0 -98 25 0 26 0 -3 97 c-3 92 -4 96 -25 98 -22 2 -23
-1 -23 -97z"/>
<path d="M18550 11078 c0 -91 1 -98 20 -98 19 0 20 7 20 98 0 91 -1 98 -20 98
-19 0 -20 -7 -20 -98z"/>
<path d="M22725 11171 c-3 -2 -5 -46 -5 -98 0 -93 0 -93 25 -93 25 0 25 0 25
98 0 92 -1 98 -20 98 -12 0 -23 -2 -25 -5z"/>
<path d="M26906 11172 c-3 -3 -6 -47 -6 -99 0 -93 0 -93 25 -93 25 0 25 0 25
94 0 84 -2 94 -19 99 -11 3 -22 2 -25 -1z"/>
<path d="M31086 11172 c-3 -3 -6 -47 -6 -99 0 -93 0 -93 25 -93 25 0 25 0 25
94 0 84 -2 94 -19 99 -11 3 -22 2 -25 -1z"/>
<path d="M43638 11173 c-16 -4 -18 -17 -18 -99 0 -94 0 -94 25 -94 25 0 25 0
25 94 0 52 -3 97 -7 99 -5 2 -16 2 -25 0z"/>
<path d="M47800 11078 c0 -91 1 -98 20 -98 19 0 20 7 20 98 0 91 -1 98 -20 98
-19 0 -20 -7 -20 -98z"/>
<path d="M1830 11075 c0 -95 0 -95 25 -95 25 0 25 0 25 95 0 95 0 95 -25 95
-25 0 -25 0 -25 -95z"/>
<path d="M6010 11075 c0 -95 0 -95 25 -95 25 0 25 0 25 95 0 95 0 95 -25 95
-25 0 -25 0 -25 -95z"/>
<path d="M39440 11075 c0 -95 0 -95 25 -95 25 0 25 0 25 95 0 95 0 95 -25 95
-25 0 -25 0 -25 -95z"/>
<path d="M1837 10773 c-4 -3 -7 -48 -7 -100 0 -93 0 -93 25 -93 l25 0 0 100
c0 90 -2 100 -18 100 -10 0 -22 -3 -25 -7z"/>
<path d="M6010 10681 l0 -101 25 0 26 0 -3 98 c-3 92 -4 97 -25 100 -23 3 -23
1 -23 -97z"/>
<path d="M10190 10681 l0 -101 25 0 26 0 -3 98 c-3 92 -4 97 -25 100 -23 3
-23 1 -23 -97z"/>
<path d="M14370 10681 l0 -101 25 0 26 0 -3 98 c-3 92 -4 97 -25 100 -23 3
-23 1 -23 -97z"/>
<path d="M18550 10680 c0 -93 1 -100 20 -100 19 0 20 7 20 100 0 93 -1 100
-20 100 -19 0 -20 -7 -20 -100z"/>
<path d="M22727 10773 c-4 -3 -7 -48 -7 -100 0 -93 0 -93 25 -93 l25 0 0 100
c0 90 -2 100 -18 100 -10 0 -22 -3 -25 -7z"/>
<path d="M26907 10773 c-4 -3 -7 -48 -7 -100 0 -93 0 -93 25 -93 l25 0 0 100
c0 90 -2 100 -18 100 -10 0 -22 -3 -25 -7z"/>
<path d="M31087 10773 c-4 -3 -7 -48 -7 -100 0 -93 0 -93 25 -93 l25 0 0 100
c0 90 -2 100 -18 100 -10 0 -22 -3 -25 -7z"/>
<path d="M39440 10681 l0 -101 25 0 26 0 -3 98 c-3 92 -4 97 -25 100 -23 3
-23 1 -23 -97z"/>
<path d="M43620 10681 l0 -101 25 0 26 0 -3 98 c-3 92 -4 97 -25 100 -23 3
-23 1 -23 -97z"/>
<path d="M47800 10680 c0 -93 1 -100 20 -100 19 0 20 7 20 100 0 93 -1 100
-20 100 -19 0 -20 -7 -20 -100z"/>
<path d="M35260 10635 c0 -52 1 -55 25 -55 24 0 25 3 25 55 0 52 -1 55 -25 55
-24 0 -25 -3 -25 -55z"/>
<path d="M1830 10275 c0 -95 0 -95 25 -95 25 0 25 0 25 95 0 95 0 95 -25 95
-25 0 -25 0 -25 -95z"/>
<path d="M6010 10275 c0 -95 0 -95 25 -95 25 0 25 0 25 95 0 95 0 95 -25 95
-25 0 -25 0 -25 -95z"/>
<path d="M10190 10275 c0 -95 0 -95 25 -95 25 0 25 0 25 95 0 95 0 95 -25 95
-25 0 -25 0 -25 -95z"/>
<path d="M14370 10275 c0 -95 0 -95 25 -95 25 0 25 0 25 95 0 95 0 95 -25 95
-25 0 -25 0 -25 -95z"/>
<path d="M18550 10275 c0 -88 1 -95 20 -95 19 0 20 7 20 95 0 88 -1 95 -20 95
-19 0 -20 -7 -20 -95z"/>
<path d="M22720 10275 c0 -95 0 -95 25 -95 25 0 25 0 25 95 0 95 0 95 -25 95
-25 0 -25 0 -25 -95z"/>
<path d="M26900 10275 c0 -95 0 -95 25 -95 25 0 25 0 25 95 0 95 0 95 -25 95
-25 0 -25 0 -25 -95z"/>
<path d="M31080 10275 c0 -95 0 -95 25 -95 25 0 25 0 25 95 0 95 0 95 -25 95
-25 0 -25 0 -25 -95z"/>
<path d="M35260 10275 c0 -95 0 -95 25 -95 25 0 25 0 25 95 0 95 0 95 -25 95
-25 0 -25 0 -25 -95z"/>
<path d="M39440 10275 c0 -95 0 -95 25 -95 25 0 25 0 25 95 0 95 0 95 -25 95
-25 0 -25 0 -25 -95z"/>
<path d="M43620 10275 c0 -95 0 -95 25 -95 25 0 25 0 25 95 0 95 0 95 -25 95
-25 0 -25 0 -25 -95z"/>
<path d="M47800 10275 c0 -88 1 -95 20 -95 19 0 20 7 20 95 0 88 -1 95 -20 95
-19 0 -20 -7 -20 -95z"/>
<path d="M10208 9973 c-16 -4 -18 -17 -18 -99 0 -94 0 -94 25 -94 25 0 25 0
25 94 0 52 -3 97 -7 99 -5 2 -16 2 -25 0z"/>
<path d="M14370 9878 l0 -98 25 0 26 0 -3 97 c-3 92 -4 96 -25 98 -22 2 -23
-1 -23 -97z"/>
<path d="M18550 9878 c0 -91 1 -98 20 -98 19 0 20 7 20 98 0 91 -1 98 -20 98
-19 0 -20 -7 -20 -98z"/>
<path d="M22725 9971 c-3 -2 -5 -46 -5 -98 0 -93 0 -93 25 -93 25 0 25 0 25
98 0 92 -1 98 -20 98 -12 0 -23 -2 -25 -5z"/>
<path d="M26906 9972 c-3 -3 -6 -47 -6 -99 0 -93 0 -93 25 -93 25 0 25 0 25
94 0 84 -2 94 -19 99 -11 3 -22 2 -25 -1z"/>
<path d="M31086 9972 c-3 -3 -6 -47 -6 -99 0 -93 0 -93 25 -93 25 0 25 0 25
94 0 84 -2 94 -19 99 -11 3 -22 2 -25 -1z"/>
<path d="M43638 9973 c-16 -4 -18 -17 -18 -99 0 -94 0 -94 25 -94 25 0 25 0
25 94 0 52 -3 97 -7 99 -5 2 -16 2 -25 0z"/>
<path d="M47800 9878 c0 -91 1 -98 20 -98 19 0 20 7 20 98 0 91 -1 98 -20 98
-19 0 -20 -7 -20 -98z"/>
<path d="M1832 9878 c3 -88 4 -93 26 -96 21 -3 22 -1 22 92 l0 96 -25 0 -26 0
3 -92z"/>
<path d="M6010 9875 c0 -95 0 -95 25 -95 25 0 25 0 25 95 0 95 0 95 -25 95
-25 0 -25 0 -25 -95z"/>
<path d="M35260 9875 c0 -95 0 -95 25 -95 25 0 25 0 25 95 0 95 0 95 -25 95
-25 0 -25 0 -25 -95z"/>
<path d="M39440 9875 c0 -95 0 -95 25 -95 25 0 25 0 25 95 0 95 0 95 -25 95
-25 0 -25 0 -25 -95z"/>
<path d="M6010 9481 l0 -101 25 0 26 0 -3 98 c-3 92 -4 97 -25 100 -23 3 -23
1 -23 -97z"/>
<path d="M14370 9481 l0 -101 25 0 26 0 -3 98 c-3 92 -4 97 -25 100 -23 3 -23
1 -23 -97z"/>
<path d="M18550 9480 c0 -93 1 -100 20 -100 19 0 20 7 20 100 0 93 -1 100 -20
100 -19 0 -20 -7 -20 -100z"/>
<path d="M22727 9573 c-4 -3 -7 -48 -7 -100 0 -93 0 -93 25 -93 l25 0 0 100
c0 90 -2 100 -18 100 -10 0 -22 -3 -25 -7z"/>
<path d="M26907 9574 c-10 -11 3 -24 24 -24 10 0 19 7 19 15 0 15 -31 21 -43
9z"/>
<path d="M31087 9573 c-4 -3 -7 -48 -7 -100 0 -93 0 -93 25 -93 l25 0 0 100
c0 90 -2 100 -18 100 -10 0 -22 -3 -25 -7z"/>
<path d="M35260 9480 l0 -100 25 0 25 0 0 100 0 100 -25 0 -25 0 0 -100z"/>
<path d="M39440 9481 l0 -101 25 0 26 0 -3 98 c-3 92 -4 97 -25 100 -23 3 -23
1 -23 -97z"/>
<path d="M43620 9481 l0 -101 25 0 26 0 -3 98 c-3 92 -4 97 -25 100 -23 3 -23
1 -23 -97z"/>
<path d="M47800 9480 c0 -93 1 -100 20 -100 19 0 20 7 20 100 0 93 -1 100 -20
100 -19 0 -20 -7 -20 -100z"/>
<path d="M6010 9075 c0 -95 0 -95 25 -95 25 0 25 0 25 95 0 95 0 95 -25 95
-25 0 -25 0 -25 -95z"/>
<path d="M14370 9075 c0 -95 0 -95 25 -95 25 0 25 0 25 95 0 95 0 95 -25 95
-25 0 -25 0 -25 -95z"/>
<path d="M18550 9075 c0 -88 1 -95 20 -95 19 0 20 7 20 95 0 88 -1 95 -20 95
-19 0 -20 -7 -20 -95z"/>
<path d="M22720 9075 c0 -95 0 -95 25 -95 25 0 25 0 25 95 0 95 0 95 -25 95
-25 0 -25 0 -25 -95z"/>
<path d="M31080 9075 c0 -95 0 -95 25 -95 25 0 25 0 25 95 0 95 0 95 -25 95
-25 0 -25 0 -25 -95z"/>
<path d="M35260 9075 c0 -95 0 -95 25 -95 25 0 25 0 25 95 0 95 0 95 -25 95
-25 0 -25 0 -25 -95z"/>
<path d="M39440 9075 c0 -95 0 -95 25 -95 25 0 25 0 25 95 0 95 0 95 -25 95
-25 0 -25 0 -25 -95z"/>
<path d="M43620 9075 c0 -95 0 -95 25 -95 25 0 25 0 25 95 0 95 0 95 -25 95
-25 0 -25 0 -25 -95z"/>
<path d="M47800 9075 c0 -88 1 -95 20 -95 19 0 20 7 20 95 0 88 -1 95 -20 95
-19 0 -20 -7 -20 -95z"/>
<path d="M10208 8773 c-16 -4 -18 -17 -18 -99 0 -94 0 -94 25 -94 25 0 25 0
25 94 0 52 -3 97 -7 99 -5 2 -16 2 -25 0z"/>
<path d="M14370 8678 l0 -98 25 0 26 0 -3 97 c-3 92 -4 96 -25 98 -22 2 -23
-1 -23 -97z"/>
<path d="M18550 8678 c0 -91 1 -98 20 -98 19 0 20 7 20 98 0 91 -1 98 -20 98
-19 0 -20 -7 -20 -98z"/>
<path d="M22725 8771 c-3 -2 -5 -46 -5 -98 0 -93 0 -93 25 -93 25 0 25 0 25
98 0 92 -1 98 -20 98 -12 0 -23 -2 -25 -5z"/>
<path d="M31086 8772 c-3 -3 -6 -47 -6 -99 0 -93 0 -93 25 -93 25 0 25 0 25
94 0 84 -2 94 -19 99 -11 3 -22 2 -25 -1z"/>
<path d="M43638 8773 c-16 -4 -18 -17 -18 -99 0 -94 0 -94 25 -94 25 0 25 0
25 94 0 52 -3 97 -7 99 -5 2 -16 2 -25 0z"/>
<path d="M47800 8678 c0 -91 1 -98 20 -98 19 0 20 7 20 98 0 91 -1 98 -20 98
-19 0 -20 -7 -20 -98z"/>
<path d="M1830 8675 c0 -95 0 -95 25 -95 25 0 25 0 25 95 0 95 0 95 -25 95
-25 0 -25 0 -25 -95z"/>
<path d="M6010 8675 c0 -95 0 -95 25 -95 25 0 25 0 25 95 0 95 0 95 -25 95
-25 0 -25 0 -25 -95z"/>
<path d="M35260 8675 c0 -95 0 -95 25 -95 25 0 25 0 25 95 0 95 0 95 -25 95
-25 0 -25 0 -25 -95z"/>
<path d="M39440 8675 c0 -95 0 -95 25 -95 25 0 25 0 25 95 0 95 0 95 -25 95
-25 0 -25 0 -25 -95z"/>
<path d="M26900 8645 c0 -63 1 -65 25 -65 24 0 25 2 25 65 0 63 -1 65 -25 65
-24 0 -25 -2 -25 -65z"/>
<path d="M6010 8281 l0 -101 25 0 26 0 -3 98 c-3 92 -4 97 -25 100 -23 3 -23
1 -23 -97z"/>
<path d="M10190 8281 l0 -101 25 0 26 0 -3 98 c-3 92 -4 97 -25 100 -23 3 -23
1 -23 -97z"/>
<path d="M14370 8281 l0 -101 25 0 26 0 -3 98 c-3 92 -4 97 -25 100 -23 3 -23
1 -23 -97z"/>
<path d="M18550 8280 c0 -93 1 -100 20 -100 19 0 20 7 20 100 0 93 -1 100 -20
100 -19 0 -20 -7 -20 -100z"/>
<path d="M22727 8373 c-4 -3 -7 -48 -7 -100 0 -93 0 -93 25 -93 l25 0 0 100
c0 90 -2 100 -18 100 -10 0 -22 -3 -25 -7z"/>
<path d="M26907 8373 c-4 -3 -7 -48 -7 -100 0 -93 0 -93 25 -93 l25 0 0 100
c0 90 -2 100 -18 100 -10 0 -22 -3 -25 -7z"/>
<path d="M31087 8373 c-4 -3 -7 -48 -7 -100 0 -93 0 -93 25 -93 l25 0 0 100
c0 90 -2 100 -18 100 -10 0 -22 -3 -25 -7z"/>
<path d="M35260 8280 l0 -100 25 0 25 0 0 100 0 100 -25 0 -25 0 0 -100z"/>
<path d="M39440 8281 l0 -101 25 0 26 0 -3 98 c-3 92 -4 97 -25 100 -23 3 -23
1 -23 -97z"/>
<path d="M43620 8281 l0 -101 25 0 26 0 -3 98 c-3 92 -4 97 -25 100 -23 3 -23
1 -23 -97z"/>
<path d="M47800 8280 c0 -93 1 -100 20 -100 19 0 20 7 20 100 0 93 -1 100 -20
100 -19 0 -20 -7 -20 -100z"/>
<path d="M6010 7875 c0 -95 0 -95 25 -95 25 0 25 0 25 95 0 95 0 95 -25 95
-25 0 -25 0 -25 -95z"/>
<path d="M10190 7875 c0 -95 0 -95 25 -95 25 0 25 0 25 95 0 95 0 95 -25 95
-25 0 -25 0 -25 -95z"/>
<path d="M14370 7875 c0 -95 0 -95 25 -95 25 0 25 0 25 95 0 95 0 95 -25 95
-25 0 -25 0 -25 -95z"/>
<path d="M18550 7875 c0 -88 1 -95 20 -95 19 0 20 7 20 95 0 88 -1 95 -20 95
-19 0 -20 -7 -20 -95z"/>
<path d="M22720 7875 c0 -95 0 -95 25 -95 25 0 25 0 25 95 0 95 0 95 -25 95
-25 0 -25 0 -25 -95z"/>
<path d="M26900 7875 c0 -95 0 -95 25 -95 25 0 25 0 25 95 0 95 0 95 -25 95
-25 0 -25 0 -25 -95z"/>
<path d="M31080 7875 c0 -95 0 -95 25 -95 25 0 25 0 25 95 0 95 0 95 -25 95
-25 0 -25 0 -25 -95z"/>
<path d="M35260 7875 c0 -95 0 -95 25 -95 25 0 25 0 25 95 0 95 0 95 -25 95
-25 0 -25 0 -25 -95z"/>
<path d="M39440 7875 c0 -95 0 -95 25 -95 25 0 25 0 25 95 0 95 0 95 -25 95
-25 0 -25 0 -25 -95z"/>
<path d="M43620 7875 c0 -95 0 -95 25 -95 25 0 25 0 25 95 0 95 0 95 -25 95
-25 0 -25 0 -25 -95z"/>
<path d="M47800 7875 c0 -88 1 -95 20 -95 19 0 20 7 20 95 0 88 -1 95 -20 95
-19 0 -20 -7 -20 -95z"/>
<path d="M10208 7573 c-16 -4 -18 -17 -18 -99 0 -94 0 -94 25 -94 25 0 25 0
25 94 0 52 -3 97 -7 99 -5 2 -16 2 -25 0z"/>
<path d="M14370 7478 l0 -98 25 0 26 0 -3 97 c-3 92 -4 96 -25 98 -22 2 -23
-1 -23 -97z"/>
<path d="M18550 7478 c0 -91 1 -98 20 -98 19 0 20 7 20 98 0 91 -1 98 -20 98
-19 0 -20 -7 -20 -98z"/>
<path d="M22725 7571 c-3 -2 -5 -46 -5 -98 0 -93 0 -93 25 -93 25 0 25 0 25
98 0 92 -1 98 -20 98 -12 0 -23 -2 -25 -5z"/>
<path d="M26906 7572 c-3 -3 -6 -47 -6 -99 0 -93 0 -93 25 -93 25 0 25 0 25
94 0 84 -2 94 -19 99 -11 3 -22 2 -25 -1z"/>
<path d="M31086 7572 c-3 -3 -6 -47 -6 -99 0 -93 0 -93 25 -93 25 0 25 0 25
94 0 84 -2 94 -19 99 -11 3 -22 2 -25 -1z"/>
<path d="M43638 7573 c-16 -4 -18 -17 -18 -99 0 -94 0 -94 25 -94 25 0 25 0
25 94 0 52 -3 97 -7 99 -5 2 -16 2 -25 0z"/>
<path d="M47800 7478 c0 -91 1 -98 20 -98 19 0 20 7 20 98 0 91 -1 98 -20 98
-19 0 -20 -7 -20 -98z"/>
<path d="M1830 7475 c0 -95 0 -95 25 -95 25 0 25 0 25 95 0 95 0 95 -25 95
-25 0 -25 0 -25 -95z"/>
<path d="M6010 7475 c0 -95 0 -95 25 -95 25 0 25 0 25 95 0 95 0 95 -25 95
-25 0 -25 0 -25 -95z"/>
<path d="M35260 7475 c0 -95 0 -95 25 -95 25 0 25 0 25 95 0 95 0 95 -25 95
-25 0 -25 0 -25 -95z"/>
<path d="M39440 7475 c0 -95 0 -95 25 -95 25 0 25 0 25 95 0 95 0 95 -25 95
-25 0 -25 0 -25 -95z"/>
<path d="M1837 7173 c-4 -3 -7 -48 -7 -100 0 -93 0 -93 25 -93 l25 0 0 100 c0
90 -2 100 -18 100 -10 0 -22 -3 -25 -7z"/>
<path d="M6010 7081 l0 -101 25 0 26 0 -3 98 c-3 92 -4 97 -25 100 -23 3 -23
1 -23 -97z"/>
<path d="M10190 7081 l0 -101 25 0 26 0 -3 98 c-3 92 -4 97 -25 100 -23 3 -23
1 -23 -97z"/>
<path d="M14370 7081 l0 -101 25 0 26 0 -3 98 c-3 92 -4 97 -25 100 -23 3 -23
1 -23 -97z"/>
<path d="M18550 7080 c0 -93 1 -100 20 -100 19 0 20 7 20 100 0 93 -1 100 -20
100 -19 0 -20 -7 -20 -100z"/>
<path d="M22727 7173 c-4 -3 -7 -48 -7 -100 0 -93 0 -93 25 -93 l25 0 0 100
c0 90 -2 100 -18 100 -10 0 -22 -3 -25 -7z"/>
<path d="M26907 7173 c-4 -3 -7 -48 -7 -100 0 -93 0 -93 25 -93 l25 0 0 100
c0 90 -2 100 -18 100 -10 0 -22 -3 -25 -7z"/>
<path d="M31087 7173 c-4 -3 -7 -48 -7 -100 0 -93 0 -93 25 -93 l25 0 0 100
c0 90 -2 100 -18 100 -10 0 -22 -3 -25 -7z"/>
<path d="M35260 7080 l0 -100 25 0 25 0 0 100 0 100 -25 0 -25 0 0 -100z"/>
<path d="M39440 7081 l0 -101 25 0 26 0 -3 98 c-3 92 -4 97 -25 100 -23 3 -23
1 -23 -97z"/>
<path d="M43620 7081 l0 -101 25 0 26 0 -3 98 c-3 92 -4 97 -25 100 -23 3 -23
1 -23 -97z"/>
<path d="M47800 7080 c0 -93 1 -100 20 -100 19 0 20 7 20 100 0 93 -1 100 -20
100 -19 0 -20 -7 -20 -100z"/>
<path d="M1830 6675 c0 -95 0 -95 25 -95 25 0 25 0 25 95 0 95 0 95 -25 95
-25 0 -25 0 -25 -95z"/>
<path d="M6010 6675 c0 -95 0 -95 25 -95 25 0 25 0 25 95 0 95 0 95 -25 95
-25 0 -25 0 -25 -95z"/>
<path d="M10190 6675 c0 -95 0 -95 25 -95 25 0 25 0 25 95 0 95 0 95 -25 95
-25 0 -25 0 -25 -95z"/>
<path d="M14370 6675 c0 -95 0 -95 25 -95 25 0 25 0 25 95 0 95 0 95 -25 95
-25 0 -25 0 -25 -95z"/>
<path d="M18550 6675 c0 -88 1 -95 20 -95 19 0 20 7 20 95 0 88 -1 95 -20 95
-19 0 -20 -7 -20 -95z"/>
<path d="M22720 6675 c0 -95 0 -95 25 -95 25 0 25 0 25 95 0 95 0 95 -25 95
-25 0 -25 0 -25 -95z"/>
<path d="M26900 6675 c0 -95 0 -95 25 -95 25 0 25 0 25 95 0 95 0 95 -25 95
-25 0 -25 0 -25 -95z"/>
<path d="M31080 6675 c0 -95 0 -95 25 -95 25 0 25 0 25 95 0 95 0 95 -25 95
-25 0 -25 0 -25 -95z"/>
<path d="M35260 6675 c0 -95 0 -95 25 -95 25 0 25 0 25 95 0 95 0 95 -25 95
-25 0 -25 0 -25 -95z"/>
<path d="M39440 6675 c0 -95 0 -95 25 -95 25 0 25 0 25 95 0 95 0 95 -25 95
-25 0 -25 0 -25 -95z"/>
<path d="M43620 6675 c0 -95 0 -95 25 -95 25 0 25 0 25 95 0 95 0 95 -25 95
-25 0 -25 0 -25 -95z"/>
<path d="M47800 6675 c0 -88 1 -95 20 -95 19 0 20 7 20 95 0 88 -1 95 -20 95
-19 0 -20 -7 -20 -95z"/>
<path d="M10208 6373 c-16 -4 -18 -17 -18 -99 0 -94 0 -94 25 -94 25 0 25 0
25 94 0 52 -3 97 -7 99 -5 2 -16 2 -25 0z"/>
<path d="M14370 6278 l0 -98 25 0 26 0 -3 97 c-3 92 -4 96 -25 98 -22 2 -23
-1 -23 -97z"/>
<path d="M18550 6278 c0 -91 1 -98 20 -98 19 0 20 7 20 98 0 91 -1 98 -20 98
-19 0 -20 -7 -20 -98z"/>
<path d="M22725 6371 c-3 -2 -5 -46 -5 -98 0 -93 0 -93 25 -93 25 0 25 0 25
98 0 92 -1 98 -20 98 -12 0 -23 -2 -25 -5z"/>
<path d="M26906 6372 c-3 -3 -6 -47 -6 -99 0 -93 0 -93 25 -93 25 0 25 0 25
94 0 84 -2 94 -19 99 -11 3 -22 2 -25 -1z"/>
<path d="M31086 6372 c-3 -3 -6 -47 -6 -99 0 -93 0 -93 25 -93 25 0 25 0 25
94 0 84 -2 94 -19 99 -11 3 -22 2 -25 -1z"/>
<path d="M43638 6373 c-16 -4 -18 -17 -18 -99 0 -94 0 -94 25 -94 25 0 25 0
25 94 0 52 -3 97 -7 99 -5 2 -16 2 -25 0z"/>
<path d="M47800 6278 c0 -91 1 -98 20 -98 19 0 20 7 20 98 0 91 -1 98 -20 98
-19 0 -20 -7 -20 -98z"/>
<path d="M1830 6275 c0 -95 0 -95 25 -95 25 0 25 0 25 95 0 95 0 95 -25 95
-25 0 -25 0 -25 -95z"/>
<path d="M6010 6275 c0 -95 0 -95 25 -95 25 0 25 0 25 95 0 95 0 95 -25 95
-25 0 -25 0 -25 -95z"/>
<path d="M35260 6275 c0 -95 0 -95 25 -95 25 0 25 0 25 95 0 95 0 95 -25 95
-25 0 -25 0 -25 -95z"/>
<path d="M39440 6275 c0 -95 0 -95 25 -95 25 0 25 0 25 95 0 95 0 95 -25 95
-25 0 -25 0 -25 -95z"/>
<path d="M1837 5973 c-4 -3 -7 -48 -7 -100 0 -93 0 -93 25 -93 l25 0 0 100 c0
90 -2 100 -18 100 -10 0 -22 -3 -25 -7z"/>
<path d="M6010 5881 l0 -101 25 0 26 0 -3 98 c-3 92 -4 97 -25 100 -23 3 -23
1 -23 -97z"/>
<path d="M10190 5881 l0 -101 25 0 26 0 -3 98 c-3 92 -4 97 -25 100 -23 3 -23
1 -23 -97z"/>
<path d="M14370 5881 l0 -101 25 0 26 0 -3 98 c-3 92 -4 97 -25 100 -23 3 -23
1 -23 -97z"/>
<path d="M18550 5880 c0 -93 1 -100 20 -100 19 0 20 7 20 100 0 93 -1 100 -20
100 -19 0 -20 -7 -20 -100z"/>
<path d="M22727 5973 c-4 -3 -7 -48 -7 -100 0 -93 0 -93 25 -93 l25 0 0 100
c0 90 -2 100 -18 100 -10 0 -22 -3 -25 -7z"/>
<path d="M26907 5973 c-4 -3 -7 -48 -7 -100 0 -93 0 -93 25 -93 l25 0 0 100
c0 90 -2 100 -18 100 -10 0 -22 -3 -25 -7z"/>
<path d="M31087 5973 c-4 -3 -7 -48 -7 -100 0 -93 0 -93 25 -93 l25 0 0 100
c0 90 -2 100 -18 100 -10 0 -22 -3 -25 -7z"/>
<path d="M35260 5880 l0 -100 25 0 25 0 0 100 0 100 -25 0 -25 0 0 -100z"/>
<path d="M39440 5881 l0 -101 25 0 26 0 -3 98 c-3 92 -4 97 -25 100 -23 3 -23
1 -23 -97z"/>
<path d="M43620 5881 l0 -101 25 0 26 0 -3 98 c-3 92 -4 97 -25 100 -23 3 -23
1 -23 -97z"/>
<path d="M47800 5880 c0 -93 1 -100 20 -100 19 0 20 7 20 100 0 93 -1 100 -20
100 -19 0 -20 -7 -20 -100z"/>
<path d="M1830 5475 c0 -95 0 -95 25 -95 25 0 25 0 25 95 0 95 0 95 -25 95
-25 0 -25 0 -25 -95z"/>
<path d="M6010 5475 c0 -95 0 -95 25 -95 25 0 25 0 25 95 0 95 0 95 -25 95
-25 0 -25 0 -25 -95z"/>
<path d="M10190 5475 c0 -95 0 -95 25 -95 25 0 25 0 25 95 0 95 0 95 -25 95
-25 0 -25 0 -25 -95z"/>
<path d="M14370 5475 c0 -95 0 -95 25 -95 25 0 25 0 25 95 0 95 0 95 -25 95
-25 0 -25 0 -25 -95z"/>
<path d="M18550 5475 c0 -88 1 -95 20 -95 19 0 20 7 20 95 0 88 -1 95 -20 95
-19 0 -20 -7 -20 -95z"/>
<path d="M22720 5475 c0 -95 0 -95 25 -95 25 0 25 0 25 95 0 95 0 95 -25 95
-25 0 -25 0 -25 -95z"/>
<path d="M26900 5475 c0 -95 0 -95 25 -95 25 0 25 0 25 95 0 95 0 95 -25 95
-25 0 -25 0 -25 -95z"/>
<path d="M31080 5475 c0 -95 0 -95 25 -95 25 0 25 0 25 95 0 95 0 95 -25 95
-25 0 -25 0 -25 -95z"/>
<path d="M35260 5475 c0 -95 0 -95 25 -95 25 0 25 0 25 95 0 95 0 95 -25 95
-25 0 -25 0 -25 -95z"/>
<path d="M39440 5475 c0 -95 0 -95 25 -95 25 0 25 0 25 95 0 95 0 95 -25 95
-25 0 -25 0 -25 -95z"/>
<path d="M43620 5475 c0 -95 0 -95 25 -95 25 0 25 0 25 95 0 95 0 95 -25 95
-25 0 -25 0 -25 -95z"/>
<path d="M47800 5475 c0 -88 1 -95 20 -95 19 0 20 7 20 95 0 88 -1 95 -20 95
-19 0 -20 -7 -20 -95z"/>
<path d="M10208 5173 c-16 -4 -18 -17 -18 -99 0 -94 0 -94 25 -94 25 0 25 0
25 94 0 52 -3 97 -7 99 -5 2 -16 2 -25 0z"/>
<path d="M14370 5078 l0 -98 25 0 26 0 -3 97 c-3 92 -4 96 -25 98 -22 2 -23
-1 -23 -97z"/>
<path d="M18550 5078 c0 -91 1 -98 20 -98 19 0 20 7 20 98 0 91 -1 98 -20 98
-19 0 -20 -7 -20 -98z"/>
<path d="M22725 5171 c-3 -2 -5 -46 -5 -98 0 -93 0 -93 25 -93 25 0 25 0 25
98 0 92 -1 98 -20 98 -12 0 -23 -2 -25 -5z"/>
<path d="M26906 5172 c-3 -3 -6 -47 -6 -99 0 -93 0 -93 25 -93 25 0 25 0 25
94 0 84 -2 94 -19 99 -11 3 -22 2 -25 -1z"/>
<path d="M31086 5172 c-3 -3 -6 -47 -6 -99 0 -93 0 -93 25 -93 25 0 25 0 25
94 0 84 -2 94 -19 99 -11 3 -22 2 -25 -1z"/>
<path d="M43638 5173 c-16 -4 -18 -17 -18 -99 0 -94 0 -94 25 -94 25 0 25 0
25 94 0 52 -3 97 -7 99 -5 2 -16 2 -25 0z"/>
<path d="M47800 5078 c0 -91 1 -98 20 -98 19 0 20 7 20 98 0 91 -1 98 -20 98
-19 0 -20 -7 -20 -98z"/>
<path d="M1830 5075 c0 -95 0 -95 25 -95 25 0 25 0 25 95 0 95 0 95 -25 95
-25 0 -25 0 -25 -95z"/>
<path d="M6010 5075 c0 -95 0 -95 25 -95 25 0 25 0 25 95 0 95 0 95 -25 95
-25 0 -25 0 -25 -95z"/>
<path d="M35260 5075 c0 -95 0 -95 25 -95 25 0 25 0 25 95 0 95 0 95 -25 95
-25 0 -25 0 -25 -95z"/>
<path d="M39440 5075 c0 -95 0 -95 25 -95 25 0 25 0 25 95 0 95 0 95 -25 95
-25 0 -25 0 -25 -95z"/>
<path d="M14102 4816 l-37 -34 -3 -251 -3 -251 -1744 0 -1745 0 0 -50 0 -50
1745 0 1745 0 0 -197 c0 -179 2 -201 20 -230 36 -60 53 -63 325 -63 359 0 345
-11 345 290 l0 200 1745 0 1745 0 0 -197 c0 -218 3 -233 60 -271 34 -23 36
-23 298 -20 l264 3 34 37 34 38 0 205 0 205 1745 0 1745 0 0 -201 c0 -300 -13
-289 344 -289 356 0 346 -9 346 295 l0 195 1745 0 1745 0 0 -199 c0 -295 -6
-290 336 -290 122 -1 236 2 253 5 17 4 45 19 61 34 l30 28 0 211 0 211 1750 0
1750 0 0 50 0 50 -1750 0 -1750 0 0 249 c0 344 23 323 -353 319 l-257 -3 -32
-33 -33 -32 -3 -250 -3 -250 -1744 0 -1745 0 0 236 c0 352 19 334 -347 334
-238 0 -260 -2 -287 -19 -53 -35 -55 -46 -56 -308 l0 -243 -1745 0 -1745 0 0
241 c0 348 21 329 -350 329 l-262 0 -39 -39 -39 -39 0 -246 0 -246 -1745 0
-1745 0 0 245 c0 346 23 325 -350 325 l-260 0 -38 -34z"/>
<path d="M1568 4811 l-33 -29 -3 -251 -3 -251 -354 0 -355 0 0 -50 0 -50 355
0 355 0 2 -202 c2 -112 4 16 5 285 2 535 2 529 63 559 20 10 27 18 18 18 -10
0 -32 -13 -50 -29z"/>
<path d="M2126 4833 c12 -2 32 -15 45 -29 24 -25 24 -28 29 -302 3 -152 3
-382 0 -510 l-5 -234 -28 -24 -28 -24 -271 0 -270 0 -31 33 c-20 21 -26 25
-18 10 27 -52 36 -53 324 -53 l269 0 34 34 34 34 0 206 0 206 1745 0 1745 0 0
50 0 50 -1745 0 -1745 0 0 245 0 244 -31 36 c-19 21 -39 34 -53 34 l-21 -2 21
-4z"/>
<path d="M47529 4809 l-29 -31 0 -249 0 -249 -1750 0 -1750 0 0 -50 0 -50
1750 0 1750 0 0 -207 c0 -182 3 -211 18 -229 33 -42 51 -44 317 -44 213 0 261
3 286 16 51 26 59 61 59 273 0 104 -4 192 -9 195 -4 3 -6 18 -3 33 2 16 7 136
9 268 5 261 0 300 -44 334 -24 20 -38 21 -300 21 l-275 0 -29 -31z m68 15 c-3
-3 -12 -4 -19 -1 -8 3 -5 6 6 6 11 1 17 -2 13 -5z m543 -18 c0 -10 -34 2 -38
13 -3 10 0 10 17 2 11 -7 21 -13 21 -15z m-25 -76 c3 -5 1 -10 -4 -10 -6 0
-11 5 -11 10 0 6 2 10 4 10 3 0 8 -4 11 -10z m-600 -490 c3 -5 1 -10 -4 -10
-6 0 -11 5 -11 10 0 6 2 10 4 10 3 0 8 -4 11 -10z m-8 -42 c-3 -8 -6 -5 -6 6
-1 11 2 17 5 13 3 -3 4 -12 1 -19z m54 -451 c-6 -8 -7 -18 -3 -22 4 -5 1 -5
-6 -1 -10 6 -10 11 -1 22 6 8 14 14 16 14 3 0 0 -6 -6 -13z m543 1 c-6 -10 -5
-10 8 -1 8 7 18 10 21 6 11 -10 8 -20 -5 -20 -7 0 -21 -4 -31 -8 -14 -6 -16
-4 -10 11 5 13 3 15 -7 9 -9 -5 -11 -4 -6 3 4 7 14 12 22 12 10 0 12 -5 8 -12z
m-504 -23 c0 -2 -6 -5 -13 -8 -8 -3 -14 1 -14 8 0 7 6 11 14 8 7 -3 13 -6 13
-8z"/>
<path d="M6400 4230 l0 -50 1743 2 1742 3 3 48 3 47 -1745 0 -1746 0 0 -50z"/>
<path d="M31470 4230 l0 -50 1740 0 1740 0 0 50 0 50 -1740 0 -1740 0 0 -50z"/>
<path d="M35650 4230 l0 -50 1740 0 1740 0 0 50 0 50 -1740 0 -1740 0 0 -50z"/>
<path d="M39822 4233 l3 -48 1743 -3 1742 -2 0 50 0 50 -1746 0 -1745 0 3 -47z"/>
<path d="M48180 4230 l0 -50 485 0 485 0 0 50 0 50 -485 0 -485 0 0 -50z"/>
<path d="M1756 3168 c-9 -12 -16 -29 -16 -38 1 -8 7 0 15 18 l14 32 124 0 c84
0 127 -4 137 -12 12 -11 12 -10 1 5 -12 15 -31 17 -137 17 -116 0 -124 -1
-138 -22z"/>
<path d="M14257 3172 c-34 -38 -37 -99 -37 -963 0 -740 2 -862 15 -907 9 -29
24 -56 35 -62 24 -13 235 -13 260 0 45 24 45 26 48 939 2 561 -1 882 -8 919
-16 89 -22 92 -170 92 -109 0 -129 -3 -143 -18z"/>
<path d="M18412 3153 c-16 -35 -17 -115 -20 -908 -3 -885 0 -967 34 -996 13
-11 258 -19 274 -9 5 3 17 24 27 45 17 37 18 99 21 890 3 865 1 939 -34 993
-14 21 -20 22 -150 22 l-135 0 -17 -37z"/>
<path d="M22586 3161 c-34 -64 -37 -156 -34 -996 3 -869 3 -868 46 -918 14
-15 31 -17 140 -15 120 3 126 4 143 28 34 47 39 169 39 960 -1 742 -5 882 -32
938 l-13 27 -137 3 -137 3 -15 -30z"/>
<path d="M26812 3178 c-31 -37 -33 -109 -30 -988 3 -766 5 -889 18 -915 l15
-30 138 -3 138 -3 17 38 c16 35 17 110 17 933 0 875 0 896 -20 935 l-20 40
-131 3 c-98 2 -134 -1 -142 -10z"/>
<path d="M47752 3181 c-7 -4 -20 -29 -27 -56 -13 -40 -15 -186 -15 -907 0
-849 3 -927 33 -965 7 -9 47 -13 138 -13 149 0 149 0 168 104 15 82 15 1660 0
1742 -19 103 -20 104 -162 104 -67 0 -128 -4 -135 -9z m271 -61 c-8 -30 -18
-24 -18 9 -1 22 2 27 11 20 7 -5 10 -19 7 -29z m-253 16 c0 -8 -4 -17 -10 -21
-5 -3 -7 -12 -3 -20 3 -8 1 -15 -4 -15 -17 0 -23 13 -12 27 9 9 8 13 0 13 -8
0 -8 4 1 15 17 18 28 19 28 1z m-38 -95 c2 -17 1 -28 -4 -25 -8 5 -12 54 -4
54 2 0 6 -13 8 -29z m299 2 c12 -14 12 -16 0 -8 -11 6 -13 4 -8 -8 3 -10 2
-17 -2 -17 -12 0 -23 29 -15 41 7 12 9 12 25 -8z m-304 -1240 c-1 -214 -2 -39
-2 387 0 426 1 601 2 388 2 -214 2 -562 0 -775z m314 -417 c-14 -36 -22 -33
-9 5 6 16 12 28 14 26 3 -2 0 -16 -5 -31z m-308 -36 c3 -11 1 -18 -4 -14 -5 3
-9 12 -9 20 0 20 7 17 13 -6z m304 -15 c0 -8 -6 -15 -13 -15 -18 0 -27 17 -12
23 21 9 25 8 25 -8z m-280 -31 c0 -26 -3 -31 -9 -20 -8 14 -3 56 6 56 1 0 3
-16 3 -36z m273 0 c0 -8 -19 -13 -24 -6 -3 5 1 9 9 9 8 0 15 -2 15 -3z m-14
-42 c-2 -4 -44 -5 -93 -2 l-88 5 85 5 c87 5 103 4 96 -8z"/>
<path d="M2046 3125 c8 -37 14 -45 14 -19 0 10 -5 26 -10 34 -8 11 -9 7 -4
-15z"/>
<path d="M1732 3090 c0 -14 2 -19 5 -12 2 6 2 18 0 25 -3 6 -5 1 -5 -13z"/>
<path d="M2065 2215 c0 -478 1 -676 2 -438 2 237 2 629 0 870 -1 241 -2 47 -2
-432z"/>
<path d="M1725 2215 c0 -467 1 -657 2 -422 2 236 2 618 0 850 -1 232 -2 40 -2
-428z"/>
<path d="M1731 1339 c0 -13 4 -33 9 -44 7 -14 8 -8 3 20 -7 46 -13 59 -12 24z"/>
<path d="M2043 1297 l-13 -47 -128 0 c-89 0 -132 4 -141 13 -10 10 -11 9 -6
-5 6 -16 23 -18 142 -18 l134 0 15 36 c8 20 14 43 12 52 -2 8 -9 -6 -15 -31z"/>
</g>
</svg>
